<?xml version="1.0" standalone="no"?>
<!DOCTYPE svg PUBLIC "-//W3C//DTD SVG 1.1//EN" "http://www.w3.org/Graphics/SVG/1.1/DTD/svg11.dtd">
<!--Generator: Xara Designer (www.xara.com), SVG filter version: 3.0.0.4-->
<svg stroke-width="0.501" stroke-linejoin="bevel" fill-rule="evenodd" xmlns:xlink="http://www.w3.org/1999/xlink" xmlns="http://www.w3.org/2000/svg" version="1.1" overflow="visible" width="595.277pt" height="841.891pt" viewBox="0 0 595.277 841.891">
 <defs>
  <marker id="DefaultArrow2" markerUnits="strokeWidth" viewBox="0 0 1 1" markerWidth="1" markerHeight="1" overflow="visible" orient="auto">
   <!-- REF_ARROW_STRAIGHT (-2) -->
   <g transform="scale(0.0092592592)">
    <!-- 1/108 -->
    <path d="M -9 54 L -9 -54 L 117 0 z"/>
   </g>
  </marker>
  <marker id="DefaultArrow3" markerUnits="strokeWidth" viewBox="0 0 1 1" markerWidth="1" markerHeight="1" overflow="visible" orient="auto">
   <!-- REF_ARROW_ANGLED -->
   <g transform="scale(0.0092592592)">
    <path d="M -27 54 L -9 0 L -27 -54 L 135 0 z"/>
   </g>
  </marker>
  <marker id="DefaultArrow4" markerUnits="strokeWidth" viewBox="0 0 1 1" markerWidth="1" markerHeight="1" overflow="visible" orient="auto">
   <!-- REF_ARROW_ROUNDED -->
   <g transform="scale(0.0092592592)">
    <path d="M -9,0 L -9,-45 C -9,-51.708 2.808,-56.580 9,-54 L 117,-9 C 120.916,-7.369 126.000,-4.242 126,0 C 126,4.242 120.916,7.369 117,9 L 9,54 C 2.808,56.580 -9,51.708 -9,45 z"/>
   </g>
  </marker>
  <marker id="DefaultArrow5" markerUnits="strokeWidth" viewBox="0 0 1 1" markerWidth="1" markerHeight="1" overflow="visible" orient="auto">
   <!-- REF_ARROW_SPOT -->
   <g transform="scale(0.0092592592)">
    <path d="M -54, 0 C -54,29.807 -29.807,54 0,54 C 29.807,54 54,29.807 54,0 C 54,-29.807 29.807,-54 0,-54 C -29.807,-54 -54,-29.807 -54,0 z"/>
   </g>
  </marker>
  <marker id="DefaultArrow6" markerUnits="strokeWidth" viewBox="0 0 1 1" markerWidth="1" markerHeight="1" overflow="visible" orient="auto">
   <!-- REF_ARROW_DIAMOND -->
   <g transform="scale(0.0092592592)">
    <path d="M -63,0 L 0,63 L 63,0 L 0,-63 z"/>
   </g>
  </marker>
  <marker id="DefaultArrow7" markerUnits="strokeWidth" viewBox="0 0 1 1" markerWidth="1" markerHeight="1" overflow="visible" orient="auto">
   <!-- REF_ARROW_FEATHER -->
   <g transform="scale(0.0092592592)">
    <path d="M 18,-54 L 108,-54 L 63,0 L 108,54 L 18, 54 L -36,0 z"/>
   </g>
  </marker>
  <marker id="DefaultArrow8" markerUnits="strokeWidth" viewBox="0 0 1 1" markerWidth="1" markerHeight="1" overflow="visible" orient="auto">
   <!-- REF_ARROW_FEATHER2 -->
   <g transform="scale(0.0092592592)">
    <path d="M -36,0 L 18,-54 L 54,-54 L 18,-18 L 27,-18 L 63,-54 L 99,-54 L 63,-18 L 72,-18 L 108,-54 L 144,-54 L 90,0 L 144,54 L 108,54 L 72,18 L 63,18 L 99,54 L 63,54 L 27,18 L 18,18 L 54,54 L 18,54 z"/>
   </g>
  </marker>
  <marker id="DefaultArrow9" markerUnits="strokeWidth" viewBox="0 0 1 1" markerWidth="1" markerHeight="1" overflow="visible" orient="auto">
   <!-- REF_ARROW_HOLLOWDIAMOND -->
   <g transform="scale(0.0092592592)">
    <path d="M 0,45 L -45,0 L 0, -45 L 45, 0 z M 0, 63 L-63, 0 L 0, -63 L 63, 0 z"/>
   </g>
  </marker>
  <filter id="StainedFilter">
   <feBlend mode="multiply" in2="BackgroundImage" in="SourceGraphic" result="blend"/>
   <feComposite in="blend" in2="SourceAlpha" operator="in" result="comp"/>
  </filter>
  <filter id="BleachFilter">
   <feBlend mode="screen" in2="BackgroundImage" in="SourceGraphic" result="blend"/>
   <feComposite in="blend" in2="SourceAlpha" operator="in" result="comp"/>
  </filter>
  <filter id="InvertTransparencyBitmapFilter">
   <feComponentTransfer>
    <feFuncR type="gamma" amplitude="1.055" exponent=".416666666" offset="-0.055"/>
    <feFuncG type="gamma" amplitude="1.055" exponent=".416666666" offset="-0.055"/>
    <feFuncB type="gamma" amplitude="1.055" exponent=".416666666" offset="-0.055"/>
   </feComponentTransfer>
   <feComponentTransfer>
    <feFuncR type="linear" slope="-1" intercept="1"/>
    <feFuncG type="linear" slope="-1" intercept="1"/>
    <feFuncB type="linear" slope="-1" intercept="1"/>
    <feFuncA type="linear" slope="1" intercept="0"/>
   </feComponentTransfer>
   <feComponentTransfer>
    <feFuncR type="gamma" amplitude="1" exponent="2.4" offset="0"/>
    <feFuncG type="gamma" amplitude="1" exponent="2.4" offset="0"/>
    <feFuncB type="gamma" amplitude="1" exponent="2.4" offset="0"/>
   </feComponentTransfer>
  </filter>
 </defs>
 <g id="Document" fill="none" stroke="black" font-family="Times New Roman" font-size="16" transform="scale(1 -1)">
  <g id="Spread" transform="translate(0 -841.891)">
   <g id="Layer 1">
    <path d="M 170.947,676.904 C 173.969,683.551 175.324,681.555 177.768,685.752 C 180.23,694.071 178.613,702.589 176.456,708.968 C 171.488,718.251 167.092,721.447 163.474,729.505 L 161.633,730.046 C 161.074,724.233 160.7,717.598 161.061,707.787 C 159.818,701.955 156.895,697.522 156.336,690.844 C 156.597,687.984 155.813,686.436 153.432,686.927 C 150.224,686.529 148.508,685.174 149.372,682.133 C 149.608,680.218 149.229,678.838 147.787,678.359 L 142.122,677.924 C 140.642,677.65 139.859,677.824 141.134,679.733 C 142.545,682.152 144.068,684.085 146.624,685.329 C 147.289,686.591 148.216,687.847 149.67,689.103 C 153.874,694.618 152.381,701.408 153.588,707.974 C 153.196,717.375 148.234,724.32 146.325,732.496 C 145.554,736.332 145.511,739.198 146.008,741.281 C 144.678,742.357 143.335,742.848 141.631,742.058 C 121.84,732.284 102.721,729.549 84.454,735.816 C 81.202,735.947 80.127,734.224 81.836,730.158 C 82.713,723.679 83.179,717.033 81.55,709.553 C 83.086,703.683 79.921,701.265 83.26,691.348 C 83.758,688.4 83.26,688.264 80.972,686.622 C 79.896,684.962 78.759,683.302 80.661,681.368 C 81.37,680.529 81.078,679.882 80.543,679.285 C 79.119,679.062 78.609,678.372 78.211,677.625 L 73.859,677.625 C 70.023,677.569 72.709,681.598 75.19,683.184 C 79.654,687.288 79.194,693.617 77.919,700.264 C 75.059,705.412 76.284,709.13 74.73,713.905 C 73.014,719.283 70.296,722.989 68.487,728.125 C 66.578,733.982 66.97,738.564 64.272,739.882 C 59.552,744.894 58.433,749.768 59.932,754.537 C 61.492,759.343 58.956,765.455 55.716,773.265 C 54.286,778.375 55.094,782.939 51.942,785.893 C 50.27,787.963 48.734,788.162 47.298,786.906 C 44.27,784.5 40.091,785.949 39.09,785.314 C 35.739,783.144 33.942,781.559 30.031,781.683 C 27.973,781.776 26.941,780.732 27.277,778.201 C 25.486,777.331 21.264,776.616 19.287,777.468 C 16.216,781.615 14.4,786.16 27.563,795.468 C 32.655,799.372 31.567,803.905 37.287,807.511 C 39.55,808.786 37.909,810.079 37.237,812.398 C 36.1,815.519 36.734,815.967 38.549,814.158 C 40.166,812.516 41.204,810.906 44.531,809.265 C 55.418,808.263 60.591,806.666 76.104,792.297 C 80.27,788.305 81.992,783.791 91.971,782.771 C 101.403,781.683 100.955,774.707 117.022,776.386 C 133.113,779.849 150.037,785.37 163.175,781.615 C 172.147,778.693 175.418,775.428 184.365,771.449 C 192.945,768.825 200.363,766.083 200.325,758.678 C 199.815,751.397 200.549,744.943 195.388,738.073 C 192.286,732.614 187.386,732.166 183.208,729.076 C 177.774,727.273 178.539,729.256 180.814,730.742 C 183.967,733.242 186.821,736.5 188.213,743.513 C 188.226,750.11 185.851,755.153 180.379,758.168 C 180.23,749.395 175.138,744.937 175.306,738.135 C 175.386,734.778 178.327,726.713 182.294,719.171 C 184.215,717.381 184.669,717.654 184.296,710.715 C 183.339,702.104 185.123,694.257 184.004,685.323 C 183.127,684.459 178.589,684.819 178.924,680.094 C 179.639,678.782 180.211,677.433 178.054,675.586 L 170.947,675.014 C 169.716,674.784 169.791,675.468 170.947,676.904 Z" stroke-linejoin="miter" stroke="none" stroke-width="0.193" fill="#000000" marker-start="none" marker-end="none" stroke-miterlimit="79.8403193612775"/>
   </g>
  </g>
 </g>
</svg>
