<?xml version="1.0" standalone="no"?>
<!DOCTYPE svg PUBLIC "-//W3C//DTD SVG 1.1//EN" "http://www.w3.org/Graphics/SVG/1.1/DTD/svg11.dtd">
<!--Generator: Xara Designer (www.xara.com), SVG filter version: 3.0.0.4-->
<svg stroke-width="0.501" stroke-linejoin="bevel" fill-rule="evenodd" xmlns:xlink="http://www.w3.org/1999/xlink" xmlns="http://www.w3.org/2000/svg" version="1.1" overflow="visible" width="595.277pt" height="841.891pt" viewBox="0 0 595.277 841.891">
 <defs>
  <marker id="DefaultArrow2" markerUnits="strokeWidth" viewBox="0 0 1 1" markerWidth="1" markerHeight="1" overflow="visible" orient="auto">
   <!-- REF_ARROW_STRAIGHT (-2) -->
   <g transform="scale(0.0092592592)">
    <!-- 1/108 -->
    <path d="M -9 54 L -9 -54 L 117 0 z"/>
   </g>
  </marker>
  <marker id="DefaultArrow3" markerUnits="strokeWidth" viewBox="0 0 1 1" markerWidth="1" markerHeight="1" overflow="visible" orient="auto">
   <!-- REF_ARROW_ANGLED -->
   <g transform="scale(0.0092592592)">
    <path d="M -27 54 L -9 0 L -27 -54 L 135 0 z"/>
   </g>
  </marker>
  <marker id="DefaultArrow4" markerUnits="strokeWidth" viewBox="0 0 1 1" markerWidth="1" markerHeight="1" overflow="visible" orient="auto">
   <!-- REF_ARROW_ROUNDED -->
   <g transform="scale(0.0092592592)">
    <path d="M -9,0 L -9,-45 C -9,-51.708 2.808,-56.580 9,-54 L 117,-9 C 120.916,-7.369 126.000,-4.242 126,0 C 126,4.242 120.916,7.369 117,9 L 9,54 C 2.808,56.580 -9,51.708 -9,45 z"/>
   </g>
  </marker>
  <marker id="DefaultArrow5" markerUnits="strokeWidth" viewBox="0 0 1 1" markerWidth="1" markerHeight="1" overflow="visible" orient="auto">
   <!-- REF_ARROW_SPOT -->
   <g transform="scale(0.0092592592)">
    <path d="M -54, 0 C -54,29.807 -29.807,54 0,54 C 29.807,54 54,29.807 54,0 C 54,-29.807 29.807,-54 0,-54 C -29.807,-54 -54,-29.807 -54,0 z"/>
   </g>
  </marker>
  <marker id="DefaultArrow6" markerUnits="strokeWidth" viewBox="0 0 1 1" markerWidth="1" markerHeight="1" overflow="visible" orient="auto">
   <!-- REF_ARROW_DIAMOND -->
   <g transform="scale(0.0092592592)">
    <path d="M -63,0 L 0,63 L 63,0 L 0,-63 z"/>
   </g>
  </marker>
  <marker id="DefaultArrow7" markerUnits="strokeWidth" viewBox="0 0 1 1" markerWidth="1" markerHeight="1" overflow="visible" orient="auto">
   <!-- REF_ARROW_FEATHER -->
   <g transform="scale(0.0092592592)">
    <path d="M 18,-54 L 108,-54 L 63,0 L 108,54 L 18, 54 L -36,0 z"/>
   </g>
  </marker>
  <marker id="DefaultArrow8" markerUnits="strokeWidth" viewBox="0 0 1 1" markerWidth="1" markerHeight="1" overflow="visible" orient="auto">
   <!-- REF_ARROW_FEATHER2 -->
   <g transform="scale(0.0092592592)">
    <path d="M -36,0 L 18,-54 L 54,-54 L 18,-18 L 27,-18 L 63,-54 L 99,-54 L 63,-18 L 72,-18 L 108,-54 L 144,-54 L 90,0 L 144,54 L 108,54 L 72,18 L 63,18 L 99,54 L 63,54 L 27,18 L 18,18 L 54,54 L 18,54 z"/>
   </g>
  </marker>
  <marker id="DefaultArrow9" markerUnits="strokeWidth" viewBox="0 0 1 1" markerWidth="1" markerHeight="1" overflow="visible" orient="auto">
   <!-- REF_ARROW_HOLLOWDIAMOND -->
   <g transform="scale(0.0092592592)">
    <path d="M 0,45 L -45,0 L 0, -45 L 45, 0 z M 0, 63 L-63, 0 L 0, -63 L 63, 0 z"/>
   </g>
  </marker>
  <filter id="StainedFilter">
   <feBlend mode="multiply" in2="BackgroundImage" in="SourceGraphic" result="blend"/>
   <feComposite in="blend" in2="SourceAlpha" operator="in" result="comp"/>
  </filter>
  <filter id="BleachFilter">
   <feBlend mode="screen" in2="BackgroundImage" in="SourceGraphic" result="blend"/>
   <feComposite in="blend" in2="SourceAlpha" operator="in" result="comp"/>
  </filter>
  <filter id="InvertTransparencyBitmapFilter">
   <feComponentTransfer>
    <feFuncR type="gamma" amplitude="1.055" exponent=".416666666" offset="-0.055"/>
    <feFuncG type="gamma" amplitude="1.055" exponent=".416666666" offset="-0.055"/>
    <feFuncB type="gamma" amplitude="1.055" exponent=".416666666" offset="-0.055"/>
   </feComponentTransfer>
   <feComponentTransfer>
    <feFuncR type="linear" slope="-1" intercept="1"/>
    <feFuncG type="linear" slope="-1" intercept="1"/>
    <feFuncB type="linear" slope="-1" intercept="1"/>
    <feFuncA type="linear" slope="1" intercept="0"/>
   </feComponentTransfer>
   <feComponentTransfer>
    <feFuncR type="gamma" amplitude="1" exponent="2.4" offset="0"/>
    <feFuncG type="gamma" amplitude="1" exponent="2.4" offset="0"/>
    <feFuncB type="gamma" amplitude="1" exponent="2.4" offset="0"/>
   </feComponentTransfer>
  </filter>
 </defs>
 <g id="Document" fill="none" stroke="black" font-family="Times New Roman" font-size="16" transform="scale(1 -1)">
  <g id="Spread" transform="translate(0 -841.891)">
   <g id="Layer 1">
    <path d="M 95.82,675.338 L 20.137,697.166 C 18.412,697.84 18.127,698.77 17.809,699.687 L 18.118,753.028 C 16.691,753.773 16.77,757.236 18.152,759.183 C 21.732,761.946 26.568,766.531 29.395,766.092 C 29.583,766.058 29.738,765.995 29.872,765.903 C 31.505,769.056 34.804,771.221 38.602,771.221 C 39.913,771.221 41.169,770.957 42.316,770.488 C 44.213,773.557 47.609,775.609 51.478,775.609 C 53.14,775.609 54.719,775.228 56.13,774.55 C 56.276,774.788 56.435,775.027 56.603,775.257 L 42.655,802.478 C 40.696,806.599 41.094,808.102 42.362,809.345 C 48.978,814.257 57.089,815.953 67.582,814.939 C 92.659,810.999 117.317,806.465 141.096,800.703 C 152.151,798.065 168.945,779.365 152.779,756.486 L 154.412,755.104 L 154.537,703.853 C 154.416,702.162 153.717,700.905 152.276,700.21 C 152.096,699.452 103.901,677.017 100.217,675.104 C 98.655,674.815 97.39,674.79 95.82,675.338 Z M 96.055,681.778 L 95.72,736.446 C 82.279,743.355 36.303,756.545 24.181,754.535 C 23.8,750.197 23.997,707.89 23.805,702.53 L 96.055,681.778 Z M 148.131,703.728 L 147.557,749.297 C 131.189,748.321 115.458,742.53 99.945,735.19 C 100.556,722.285 99.94,696.815 100.02,682.373 C 100.02,682.36 100.028,682.356 100.053,682.36 C 101.515,682.473 148.127,704.272 148.131,703.728 Z M 109.558,734.223 C 111.493,739.562 120.005,740.098 121.965,735.479 C 123.142,732.707 124.318,730.756 125.495,728.884 C 127.618,725.819 130.679,726.841 130.365,731.003 C 128.949,740.738 131.173,744.138 135.858,744.427 C 140.883,744.741 145.045,739.951 143.161,725.35 C 141.825,717.767 135.31,712.684 127.379,712.395 C 115.684,714.673 107.281,727.942 109.558,734.223 Z M 132.169,717.185 C 137.587,718.99 141.121,727.155 139.786,734.851 C 138.37,744.272 132.642,740.345 133.27,736.811 C 133.727,733.226 133.848,730.584 133.191,727 C 131.307,720.33 124.163,722.984 122.279,726.527 C 117.568,735.634 115.525,734.487 114.428,733.829 C 112.954,732.657 112.787,730.823 114.189,728.411 C 121.178,717.026 127.802,715.732 132.169,717.185 Z M 69.252,718.077 L 42.362,725.241 C 38.435,725.832 40.398,732.506 42.953,731.133 L 47.563,729.856 L 47.466,741.731 C 47.621,743.548 48.593,744.641 51.097,744.381 L 61.695,741.437 C 63.951,740.851 63.951,739.08 64.052,735.647 L 64.345,725.635 L 69.349,724.262 C 72.883,724.655 73.67,716.804 69.252,718.077 Z M 55.807,729.563 L 55.904,737.217 L 52.47,737.903 L 52.47,730.346 L 55.807,729.563 Z M 106.405,744.724 C 106.188,745.352 106.041,746.018 105.974,746.705 C 105.124,747.136 104.161,747.383 103.144,747.383 C 100.225,747.383 97.771,745.378 97.089,742.673 C 97.864,742.333 98.621,741.999 99.363,741.659 C 101.745,742.756 104.094,743.778 106.405,744.724 Z M 100.167,750.009 C 99.074,751.817 97.085,753.036 94.819,753.036 C 91.373,753.036 88.576,750.239 88.576,746.793 C 88.576,746.546 88.589,746.307 88.614,746.068 C 90.532,745.352 92.399,744.628 94.196,743.891 C 95.083,746.759 97.319,749.046 100.167,750.009 Z M 120.428,749.829 C 119.524,752.161 117.254,753.823 114.608,753.823 C 111.162,753.823 108.365,751.026 108.365,747.58 L 108.478,746.429 C 108.486,746.32 108.528,746.207 108.558,746.102 C 108.595,745.947 108.641,745.796 108.692,745.646 C 112.753,747.253 116.681,748.639 120.428,749.829 Z M 89.481,753.505 C 88.22,755.573 85.947,756.955 83.355,756.955 C 79.57,756.955 76.471,754.024 76.195,750.31 C 79.612,749.234 82.986,748.108 86.24,746.939 C 86.282,749.59 87.538,751.956 89.481,753.505 Z M 103.144,750.494 C 103.244,750.494 103.345,750.49 103.445,750.486 C 105.04,751.617 106.087,753.48 106.087,755.586 C 106.087,759.032 103.29,761.829 99.844,761.829 C 96.398,761.829 93.601,759.032 93.601,755.586 C 93.601,755.485 93.601,755.385 93.605,755.284 C 94.003,755.343 94.405,755.372 94.819,755.372 C 98.228,755.372 101.18,753.367 102.557,750.473 C 102.75,750.486 102.947,750.494 103.144,750.494 Z M 74.516,757.788 C 74.516,761.75 71.3,764.965 67.339,764.965 C 63.378,764.965 60.162,761.75 60.162,757.788 C 60.162,756.696 60.405,755.661 60.84,754.732 C 64.282,753.827 67.795,752.848 71.304,751.805 C 73.239,753.095 74.516,755.293 74.516,757.788 Z M 57.244,755.779 C 57.198,755.749 57.151,755.72 57.105,755.691 C 57.16,755.678 57.214,755.666 57.269,755.653 C 57.26,755.695 57.248,755.737 57.244,755.779 Z M 94.43,762.637 C 93.463,763.868 91.955,764.668 90.264,764.668 C 87.421,764.668 85.097,762.428 84.959,759.622 C 87.354,759.229 89.468,757.981 90.976,756.201 C 91.156,758.818 92.47,761.126 94.43,762.637 Z M 58.19,764.856 C 58.19,768.558 55.179,771.568 51.478,771.568 C 47.776,771.568 44.766,768.558 44.766,764.856 C 44.766,761.155 47.776,758.144 51.478,758.144 C 55.179,758.144 58.19,761.155 58.19,764.856 Z M 78.54,758.513 C 78.946,758.735 79.369,758.932 79.172,758.827 C 79.746,759.099 80.194,759.258 80.16,759.208 C 80.462,759.308 80.746,759.396 80.608,759.346 L 80.637,759.35 L 80.642,759.354 L 80.667,759.363 C 81.132,759.501 81.14,759.497 80.667,759.363 C 80.809,759.401 80.855,759.409 80.654,759.359 L 80.646,759.354 C 81.073,759.463 81.023,759.451 80.696,759.363 C 80.7,759.367 80.692,759.363 80.663,759.354 C 81.881,759.643 82.095,759.673 82.312,759.698 C 82.346,760.489 82.492,761.251 82.572,761.381 C 82.614,761.553 82.664,761.72 82.651,761.662 C 82.731,761.921 82.731,761.921 82.664,761.699 C 82.668,761.712 82.668,761.712 82.647,761.636 C 82.693,761.779 82.672,761.712 82.618,761.536 C 82.798,762.084 82.819,762.131 82.618,761.536 C 83.079,762.801 83.146,762.93 83.175,762.955 C 83.225,763.064 83.284,763.169 83.267,763.131 C 83.271,763.144 83.28,763.156 83.271,763.14 L 83.271,763.148 C 83.275,763.156 83.284,763.165 83.275,763.152 C 83.275,763.152 83.28,763.156 83.284,763.165 L 83.288,763.173 L 83.288,763.165 C 83.288,763.169 83.288,763.169 83.292,763.173 C 83.292,763.177 83.296,763.182 83.292,763.182 C 83.296,763.19 83.3,763.198 83.305,763.202 L 83.296,763.186 L 83.309,763.211 C 83.317,763.223 83.321,763.232 83.309,763.215 C 83.317,763.228 83.326,763.236 83.326,763.24 C 83.33,763.253 83.334,763.257 83.338,763.265 L 83.347,763.278 L 83.347,763.269 L 83.347,763.286 C 83.351,763.29 83.355,763.295 83.355,763.295 L 83.355,763.299 L 83.359,763.303 L 83.363,763.316 L 83.363,763.307 C 83.376,763.328 83.38,763.341 83.38,763.336 C 83.493,763.529 83.476,763.504 83.451,763.454 C 83.455,763.458 83.46,763.462 83.464,763.47 L 83.476,763.491 C 83.476,763.487 83.468,763.475 83.468,763.475 C 83.853,764.082 83.996,764.262 84.109,764.383 C 84.142,764.425 84.18,764.471 84.217,764.513 C 84.205,764.505 84.192,764.492 84.184,764.48 C 84.222,764.521 84.259,764.568 84.31,764.622 C 84.49,764.835 84.632,764.982 84.578,764.915 C 84.967,765.325 85.298,765.606 85.335,765.598 L 85.365,765.627 C 84.532,767.465 82.677,768.751 80.529,768.751 C 77.891,768.751 75.705,766.824 75.286,764.308 L 75.345,764.22 C 75.32,764.258 75.349,764.224 76.057,763.215 C 76.011,763.278 76.002,763.29 76.032,763.249 C 75.784,763.604 75.789,763.6 75.985,763.32 L 76.006,763.29 C 75.965,763.353 75.935,763.399 75.998,763.299 L 75.981,763.328 C 75.877,763.491 75.877,763.491 75.994,763.311 L 75.998,763.303 L 76.006,763.299 C 75.973,763.349 75.956,763.374 76.027,763.261 L 76.048,763.232 L 76.078,763.186 C 76.078,763.194 76.082,763.186 76.09,763.177 C 76.082,763.186 76.073,763.198 76.082,763.186 C 76.052,763.232 76.086,763.182 76.119,763.131 C 76.103,763.156 76.094,763.173 76.111,763.135 C 76.111,763.14 76.249,762.884 76.689,762.03 C 76.387,762.637 76.463,762.503 76.614,762.185 C 76.53,762.365 76.547,762.336 76.618,762.185 L 76.622,762.168 C 76.618,762.177 76.626,762.16 76.643,762.135 L 76.643,762.126 L 76.651,762.118 C 76.664,762.089 76.681,762.051 76.701,762.009 C 76.701,762.001 76.706,761.997 76.71,761.988 C 76.706,761.997 76.701,762.005 76.701,762.013 C 76.706,762.001 76.71,761.992 76.71,761.988 C 76.735,761.925 76.773,761.842 76.815,761.758 C 76.823,761.783 76.949,761.473 77.141,760.862 C 77.062,761.134 77.12,760.962 77.196,760.694 C 77.212,760.632 77.225,760.585 77.242,760.539 C 77.233,760.56 77.225,760.581 77.221,760.598 C 77.237,760.531 77.258,760.456 77.279,760.384 C 77.3,760.368 77.371,760.075 77.522,759.162 C 77.388,760.024 77.484,759.539 77.547,759.045 C 77.857,758.831 78.188,758.655 78.54,758.513 Z M 79.172,758.827 C 78.992,758.739 78.795,758.643 78.602,758.538 C 78.916,758.693 79.092,758.781 79.172,758.827 Z M 40.725,764.856 C 40.725,765.815 40.851,766.745 41.085,767.628 C 40.315,767.938 39.477,768.11 38.602,768.11 C 34.901,768.11 31.894,765.103 31.894,761.402 C 31.894,761.172 31.903,760.941 31.928,760.719 C 34.809,760.38 38.401,759.79 42.459,758.994 C 41.362,760.682 40.725,762.692 40.725,764.856 Z M 80.608,759.342 L 80.6,759.342 L 80.608,759.342 C 80.679,759.363 80.646,759.354 80.608,759.342 C 80.608,759.342 80.604,759.342 80.6,759.342 L 80.612,759.342 C 80.596,759.342 80.579,759.338 80.566,759.334 C 80.591,759.338 80.616,759.346 80.608,759.342 Z M 80.663,759.354 C 80.65,759.35 80.637,759.35 80.625,759.346 C 80.621,759.346 80.612,759.342 80.608,759.342 C 80.629,759.346 80.65,759.35 80.663,759.354 Z M 80.608,759.342 C 80.646,759.354 80.671,759.363 80.608,759.342 Z M 80.625,759.346 C 80.629,759.346 80.629,759.346 80.612,759.342 C 80.625,759.346 80.616,759.346 80.608,759.342 C 80.616,759.342 80.621,759.346 80.625,759.346 Z M 80.637,759.35 L 80.646,759.354 L 80.621,759.346 L 80.608,759.342 L 80.637,759.35 Z M 80.621,759.346 L 80.633,759.35 L 80.612,759.346 C 80.734,759.375 80.83,759.401 80.621,759.346 Z M 80.696,759.363 L 80.637,759.35 C 80.679,759.363 80.667,759.359 80.612,759.342 C 80.654,759.354 80.675,759.359 80.696,759.363 Z M 80.654,759.359 L 80.642,759.354 C 80.746,759.38 80.826,759.401 80.654,759.359 Z M 77.196,760.694 C 77.162,760.799 77.129,760.916 77.141,760.862 C 77.129,760.904 77.162,760.782 77.221,760.598 C 77.212,760.627 77.208,760.652 77.196,760.694 Z M 82.618,761.536 L 82.618,761.54 C 82.614,761.532 82.614,761.528 82.614,761.523 C 82.614,761.528 82.614,761.532 82.618,761.536 Z M 82.622,761.561 C 82.635,761.607 82.626,761.578 82.618,761.536 C 82.618,761.544 82.622,761.553 82.622,761.561 Z M 82.618,761.536 C 82.685,761.75 82.651,761.645 82.618,761.536 Z M 82.618,761.54 L 82.626,761.569 C 82.643,761.636 82.66,761.691 82.626,761.578 L 82.631,761.595 C 82.656,761.666 82.651,761.649 82.631,761.586 L 82.618,761.54 Z M 82.622,761.557 C 82.639,761.603 82.635,761.59 82.618,761.54 C 82.618,761.544 82.622,761.553 82.622,761.557 Z M 82.622,761.561 C 82.635,761.603 82.643,761.632 82.626,761.574 L 82.622,761.561 Z M 82.622,761.565 C 82.631,761.582 82.635,761.595 82.622,761.561 L 82.622,761.565 Z M 82.626,761.578 C 82.66,761.691 82.643,761.632 82.626,761.569 C 82.639,761.611 82.651,761.649 82.626,761.578 Z M 82.635,761.599 L 82.635,761.607 L 82.626,761.578 L 82.635,761.599 Z M 82.635,761.607 L 82.631,761.595 L 82.631,761.582 L 82.635,761.607 Z M 82.631,761.595 C 82.643,761.641 82.647,761.645 82.631,761.595 L 82.635,761.611 L 82.651,761.662 C 82.685,761.77 82.66,761.695 82.631,761.595 L 82.631,761.586 C 82.647,761.641 82.66,761.683 82.631,761.595 Z M 82.639,761.611 L 82.635,761.599 C 82.656,761.683 82.647,761.653 82.635,761.595 C 82.664,761.695 82.685,761.77 82.639,761.611 Z M 82.639,761.611 C 82.66,761.678 82.647,761.645 82.635,761.595 C 82.647,761.645 82.66,761.674 82.639,761.611 Z M 82.643,761.632 C 82.668,761.712 82.668,761.716 82.664,761.695 L 82.643,761.632 Z M 76.651,762.118 L 76.664,762.08 C 76.664,762.08 76.681,762.047 76.701,762.009 C 76.685,762.047 76.668,762.08 76.651,762.118 Z M 76.664,762.08 L 76.655,762.101 L 76.689,762.03 C 76.668,762.072 76.655,762.101 76.664,762.08 Z M 76.655,762.101 L 76.643,762.126 C 76.639,762.135 76.634,762.143 76.63,762.156 L 76.626,762.164 C 76.634,762.151 76.639,762.135 76.647,762.118 C 76.639,762.135 76.643,762.126 76.655,762.101 Z M 76.626,762.164 C 76.626,762.164 76.63,762.16 76.63,762.156 C 76.634,762.147 76.639,762.139 76.643,762.135 C 76.634,762.143 76.63,762.156 76.626,762.164 Z M 76.618,762.172 L 76.614,762.189 C 76.618,762.181 76.622,762.172 76.626,762.164 C 76.601,762.214 76.58,762.256 76.618,762.172 Z M 76.622,762.168 C 76.622,762.177 76.622,762.172 76.626,762.164 L 76.622,762.168 Z M 76.618,762.185 C 76.605,762.206 76.605,762.21 76.614,762.185 L 76.622,762.168 C 76.618,762.172 76.618,762.177 76.618,762.185 Z M 153.059,764.4 C 158.951,779.415 150.216,791.583 139.421,792.957 C 136.26,793.103 135.594,792.563 136.968,789.619 C 140.795,780.889 144.773,772.301 149.136,764.107 C 149.726,762.239 152.079,761.553 153.059,764.4 Z M 83.267,763.127 L 83.267,763.131 C 83.263,763.123 83.259,763.115 83.254,763.106 C 83.259,763.115 83.263,763.123 83.267,763.127 Z M 83.267,763.131 L 83.275,763.14 C 83.284,763.161 83.28,763.156 83.275,763.144 L 83.271,763.135 C 83.28,763.148 83.28,763.156 83.275,763.144 L 83.271,763.135 C 83.271,763.135 83.271,763.14 83.275,763.144 C 83.28,763.156 83.275,763.152 83.271,763.14 L 83.267,763.131 Z M 76.069,763.194 C 76.069,763.198 76.086,763.169 76.111,763.135 C 76.078,763.186 76.057,763.215 76.069,763.194 Z M 83.271,763.144 L 83.275,763.148 L 83.275,763.152 L 83.271,763.144 Z M 83.284,763.156 C 83.284,763.152 83.28,763.152 83.28,763.148 C 83.28,763.152 83.284,763.156 83.284,763.156 Z M 83.275,763.152 L 83.284,763.161 L 83.284,763.165 L 83.275,763.152 Z M 83.288,763.165 C 83.292,763.169 83.288,763.165 83.284,763.156 C 83.284,763.161 83.284,763.161 83.288,763.165 Z M 76.086,763.182 L 76.073,763.198 C 76.065,763.202 76.061,763.211 76.069,763.198 L 76.073,763.194 C 76.065,763.202 76.073,763.19 76.086,763.182 Z M 76.065,763.211 C 76.061,763.211 76.061,763.215 76.057,763.219 L 76.061,763.211 C 76.069,763.202 76.078,763.19 76.086,763.182 C 76.078,763.19 76.069,763.198 76.065,763.211 Z M 83.296,763.182 L 83.3,763.19 L 83.305,763.194 L 83.3,763.194 C 83.3,763.186 83.296,763.182 83.296,763.182 Z M 83.296,763.182 L 83.3,763.186 L 83.305,763.194 C 83.305,763.194 83.305,763.19 83.296,763.182 Z M 83.305,763.202 L 83.296,763.186 C 83.296,763.19 83.3,763.198 83.305,763.202 Z M 76.078,763.186 C 76.052,763.228 76.036,763.253 76.048,763.232 C 76.036,763.253 76.036,763.249 76.057,763.219 C 76.061,763.215 76.061,763.211 76.065,763.211 L 76.082,763.186 Z M 83.305,763.19 L 83.313,763.207 L 83.309,763.202 L 83.305,763.194 L 83.305,763.19 Z M 76.061,763.211 C 76.057,763.215 76.052,763.219 76.065,763.207 C 76.006,763.29 76.04,763.249 76.073,763.198 C 76.069,763.202 76.065,763.207 76.061,763.211 Z M 76.065,763.202 L 76.061,763.211 L 76.069,763.198 L 76.065,763.202 Z M 76.061,763.211 L 76.052,763.223 L 76.069,763.198 L 76.061,763.211 Z M 76.061,763.211 L 76.057,763.215 L 76.065,763.202 L 76.061,763.211 Z M 76.027,763.257 L 76.023,763.265 C 76.032,763.249 76.044,763.232 76.061,763.211 C 76.048,763.228 76.036,763.244 76.027,763.257 Z M 83.321,763.228 C 83.321,763.232 83.326,763.236 83.326,763.236 L 83.326,763.24 L 83.309,763.215 L 83.309,763.211 C 83.313,763.211 83.313,763.219 83.321,763.228 Z M 83.313,763.211 L 83.33,763.24 C 83.326,763.236 83.321,763.232 83.321,763.228 C 83.317,763.219 83.313,763.215 83.313,763.211 Z M 83.313,763.211 L 83.321,763.223 C 83.317,763.219 83.313,763.215 83.313,763.211 Z M 76.061,763.215 C 75.998,763.303 76.027,763.261 76.057,763.219 C 76.027,763.261 76.006,763.295 76.057,763.215 Z M 76.057,763.215 L 76.052,763.223 C 75.969,763.345 75.906,763.433 76.036,763.24 C 76.019,763.269 76.036,763.244 76.057,763.215 Z M 83.317,763.215 L 83.321,763.223 C 83.321,763.228 83.321,763.228 83.317,763.215 Z M 76.057,763.215 L 76.044,763.24 L 76.048,763.232 L 76.057,763.215 Z M 76.057,763.219 C 76.044,763.236 76.032,763.257 76.036,763.249 L 76.04,763.244 L 76.057,763.219 Z M 76.052,763.223 L 76.023,763.265 C 76.027,763.257 76.036,763.24 76.052,763.223 Z M 83.321,763.223 L 83.33,763.236 C 83.326,763.232 83.321,763.228 83.321,763.223 Z M 76.048,763.232 L 76.032,763.257 L 76.019,763.269 C 76.023,763.265 76.023,763.261 76.027,763.257 C 76.036,763.249 76.044,763.236 76.052,763.223 C 76.04,763.244 76.027,763.261 76.048,763.232 Z M 83.33,763.236 L 83.338,763.257 C 83.338,763.257 83.334,763.249 83.33,763.236 Z M 83.326,763.24 L 83.33,763.244 L 83.33,763.249 L 83.326,763.24 Z M 76.04,763.244 L 75.998,763.303 L 76.002,763.299 L 76.044,763.24 L 76.04,763.244 Z M 76.019,763.265 L 76.032,763.249 L 76.036,763.24 L 76.019,763.265 Z M 83.33,763.249 L 83.338,763.257 L 83.338,763.261 L 83.33,763.249 Z M 76.027,763.261 L 76.006,763.299 L 76.036,763.249 L 76.027,763.261 Z M 76.019,763.269 L 76.032,763.257 L 76.036,763.253 C 76.027,763.257 76.023,763.265 76.019,763.269 Z M 76.036,763.253 L 76.006,763.295 L 76.019,763.274 L 76.036,763.253 Z M 83.338,763.257 L 83.342,763.265 C 83.355,763.286 83.351,763.278 83.338,763.257 Z M 76.015,763.278 L 76.023,763.265 C 76.019,763.269 76.015,763.274 76.015,763.278 Z M 83.342,763.265 L 83.342,763.269 L 83.338,763.265 L 83.342,763.265 Z M 76.023,763.265 C 76.015,763.274 76.015,763.278 76.019,763.265 C 76.015,763.274 76.019,763.269 76.023,763.265 Z M 83.347,763.278 L 83.347,763.269 C 83.347,763.274 83.347,763.282 83.347,763.278 Z M 76.019,763.269 C 76.015,763.274 76.015,763.278 76.015,763.282 L 76.019,763.269 C 76.015,763.282 76.006,763.286 76.019,763.269 Z M 83.347,763.278 C 83.359,763.295 83.351,763.282 83.347,763.274 C 83.351,763.286 83.355,763.295 83.347,763.278 Z M 83.355,763.278 L 83.355,763.282 L 83.351,763.286 C 83.355,763.286 83.355,763.282 83.355,763.278 Z M 76.011,763.286 L 75.994,763.307 C 75.893,763.45 75.948,763.374 76.015,763.282 C 75.985,763.324 75.973,763.345 76.011,763.286 Z M 76.011,763.282 L 76.011,763.286 C 75.99,763.311 75.998,763.299 76.011,763.282 C 76.011,763.286 76.006,763.29 76.011,763.282 Z M 83.351,763.286 L 83.355,763.295 C 83.351,763.29 83.351,763.286 83.347,763.286 L 83.351,763.286 Z M 75.998,763.307 L 76.002,763.303 L 76.006,763.29 L 76.011,763.286 L 75.998,763.307 Z M 76.002,763.295 C 75.99,763.32 75.99,763.32 76.002,763.295 Z M 83.359,763.299 L 83.359,763.303 L 83.355,763.295 C 83.359,763.303 83.359,763.303 83.359,763.299 Z M 76.002,763.299 L 75.998,763.307 L 76.006,763.295 C 75.994,763.307 75.994,763.311 76.002,763.299 Z M 75.994,763.311 L 75.981,763.328 L 75.998,763.299 L 76.002,763.295 L 75.994,763.311 Z M 75.994,763.311 C 75.969,763.349 75.977,763.336 76.002,763.303 C 75.965,763.362 75.935,763.403 75.994,763.311 Z M 75.985,763.32 C 75.981,763.328 75.981,763.328 75.994,763.307 L 75.985,763.32 Z M 83.367,763.316 L 83.372,763.324 C 83.38,763.349 83.384,763.353 83.367,763.32 L 83.372,763.324 C 83.422,763.412 83.401,763.37 83.367,763.316 Z M 83.372,763.316 L 83.443,763.433 L 83.443,763.437 C 83.434,763.42 83.414,763.383 83.372,763.316 Z M 83.455,763.45 C 83.464,763.466 83.472,763.483 83.464,763.47 C 83.46,763.462 83.455,763.458 83.451,763.454 C 83.447,763.45 83.443,763.441 83.443,763.437 L 83.451,763.445 C 83.447,763.441 83.443,763.437 83.443,763.433 C 83.447,763.445 83.455,763.458 83.455,763.45 Z M 84.578,764.915 C 84.485,764.819 84.393,764.718 84.31,764.622 C 84.272,764.58 84.247,764.551 84.217,764.513 C 84.435,764.752 84.544,764.873 84.578,764.915 Z M 67.339,768.076 C 68.913,768.076 70.412,767.716 71.748,767.08 C 71.92,767.666 72.012,768.29 72.012,768.935 C 72.012,772.636 69.001,775.647 65.3,775.647 C 62.75,775.647 60.531,774.219 59.392,772.125 C 60.769,770.618 61.728,768.725 62.08,766.628 C 63.616,767.545 65.417,768.076 67.339,768.076 Z M 136.277,798.057 C 136.574,799.237 77.3,812.096 56.1,811.016 C 48.35,810.329 47.956,807.679 51.097,806.992 C 72.493,804.631 93.739,801.645 114.884,798.258 C 126.759,796.001 134.979,795.427 136.277,798.057 Z" stroke="none" stroke-width="0.147" fill="#000000" marker-start="none" marker-end="none" stroke-miterlimit="79.8403193612775"/>
   </g>
  </g>
 </g>
</svg>
