<?xml version="1.0" standalone="no"?>
<!DOCTYPE svg PUBLIC "-//W3C//DTD SVG 1.1//EN" "http://www.w3.org/Graphics/SVG/1.1/DTD/svg11.dtd">
<!--Generator: Xara Designer (www.xara.com), SVG filter version: 3.0.0.4-->
<svg stroke-width="0.501" stroke-linejoin="bevel" fill-rule="evenodd" xmlns:xlink="http://www.w3.org/1999/xlink" xmlns="http://www.w3.org/2000/svg" version="1.1" overflow="visible" width="595.277pt" height="841.891pt" viewBox="0 0 595.277 841.891">
 <defs>
  <marker id="DefaultArrow2" markerUnits="strokeWidth" viewBox="0 0 1 1" markerWidth="1" markerHeight="1" overflow="visible" orient="auto">
   <!-- REF_ARROW_STRAIGHT (-2) -->
   <g transform="scale(0.0092592592)">
    <!-- 1/108 -->
    <path d="M -9 54 L -9 -54 L 117 0 z"/>
   </g>
  </marker>
  <marker id="DefaultArrow3" markerUnits="strokeWidth" viewBox="0 0 1 1" markerWidth="1" markerHeight="1" overflow="visible" orient="auto">
   <!-- REF_ARROW_ANGLED -->
   <g transform="scale(0.0092592592)">
    <path d="M -27 54 L -9 0 L -27 -54 L 135 0 z"/>
   </g>
  </marker>
  <marker id="DefaultArrow4" markerUnits="strokeWidth" viewBox="0 0 1 1" markerWidth="1" markerHeight="1" overflow="visible" orient="auto">
   <!-- REF_ARROW_ROUNDED -->
   <g transform="scale(0.0092592592)">
    <path d="M -9,0 L -9,-45 C -9,-51.708 2.808,-56.580 9,-54 L 117,-9 C 120.916,-7.369 126.000,-4.242 126,0 C 126,4.242 120.916,7.369 117,9 L 9,54 C 2.808,56.580 -9,51.708 -9,45 z"/>
   </g>
  </marker>
  <marker id="DefaultArrow5" markerUnits="strokeWidth" viewBox="0 0 1 1" markerWidth="1" markerHeight="1" overflow="visible" orient="auto">
   <!-- REF_ARROW_SPOT -->
   <g transform="scale(0.0092592592)">
    <path d="M -54, 0 C -54,29.807 -29.807,54 0,54 C 29.807,54 54,29.807 54,0 C 54,-29.807 29.807,-54 0,-54 C -29.807,-54 -54,-29.807 -54,0 z"/>
   </g>
  </marker>
  <marker id="DefaultArrow6" markerUnits="strokeWidth" viewBox="0 0 1 1" markerWidth="1" markerHeight="1" overflow="visible" orient="auto">
   <!-- REF_ARROW_DIAMOND -->
   <g transform="scale(0.0092592592)">
    <path d="M -63,0 L 0,63 L 63,0 L 0,-63 z"/>
   </g>
  </marker>
  <marker id="DefaultArrow7" markerUnits="strokeWidth" viewBox="0 0 1 1" markerWidth="1" markerHeight="1" overflow="visible" orient="auto">
   <!-- REF_ARROW_FEATHER -->
   <g transform="scale(0.0092592592)">
    <path d="M 18,-54 L 108,-54 L 63,0 L 108,54 L 18, 54 L -36,0 z"/>
   </g>
  </marker>
  <marker id="DefaultArrow8" markerUnits="strokeWidth" viewBox="0 0 1 1" markerWidth="1" markerHeight="1" overflow="visible" orient="auto">
   <!-- REF_ARROW_FEATHER2 -->
   <g transform="scale(0.0092592592)">
    <path d="M -36,0 L 18,-54 L 54,-54 L 18,-18 L 27,-18 L 63,-54 L 99,-54 L 63,-18 L 72,-18 L 108,-54 L 144,-54 L 90,0 L 144,54 L 108,54 L 72,18 L 63,18 L 99,54 L 63,54 L 27,18 L 18,18 L 54,54 L 18,54 z"/>
   </g>
  </marker>
  <marker id="DefaultArrow9" markerUnits="strokeWidth" viewBox="0 0 1 1" markerWidth="1" markerHeight="1" overflow="visible" orient="auto">
   <!-- REF_ARROW_HOLLOWDIAMOND -->
   <g transform="scale(0.0092592592)">
    <path d="M 0,45 L -45,0 L 0, -45 L 45, 0 z M 0, 63 L-63, 0 L 0, -63 L 63, 0 z"/>
   </g>
  </marker>
  <filter id="StainedFilter">
   <feBlend mode="multiply" in2="BackgroundImage" in="SourceGraphic" result="blend"/>
   <feComposite in="blend" in2="SourceAlpha" operator="in" result="comp"/>
  </filter>
  <filter id="BleachFilter">
   <feBlend mode="screen" in2="BackgroundImage" in="SourceGraphic" result="blend"/>
   <feComposite in="blend" in2="SourceAlpha" operator="in" result="comp"/>
  </filter>
  <filter id="InvertTransparencyBitmapFilter">
   <feComponentTransfer>
    <feFuncR type="gamma" amplitude="1.055" exponent=".416666666" offset="-0.055"/>
    <feFuncG type="gamma" amplitude="1.055" exponent=".416666666" offset="-0.055"/>
    <feFuncB type="gamma" amplitude="1.055" exponent=".416666666" offset="-0.055"/>
   </feComponentTransfer>
   <feComponentTransfer>
    <feFuncR type="linear" slope="-1" intercept="1"/>
    <feFuncG type="linear" slope="-1" intercept="1"/>
    <feFuncB type="linear" slope="-1" intercept="1"/>
    <feFuncA type="linear" slope="1" intercept="0"/>
   </feComponentTransfer>
   <feComponentTransfer>
    <feFuncR type="gamma" amplitude="1" exponent="2.4" offset="0"/>
    <feFuncG type="gamma" amplitude="1" exponent="2.4" offset="0"/>
    <feFuncB type="gamma" amplitude="1" exponent="2.4" offset="0"/>
   </feComponentTransfer>
  </filter>
 </defs>
 <g id="Document" fill="none" stroke="black" font-family="Times New Roman" font-size="16" transform="scale(1 -1)">
  <g id="Spread" transform="translate(0 -841.891)">
   <g id="Layer 1">
    <path d="M 100.125,690.232 C 92.809,684.565 91.159,682.881 86.091,682.8 C 84.037,682.769 81.024,682.672 77.455,683.19 C 73.777,683.19 70.455,684.77 68.091,687.312 C 67.365,687.107 66.55,686.995 65.7,686.995 L 65.615,686.995 C 65.693,686.477 65.735,685.948 65.735,685.411 C 65.735,679.687 61.142,676.21 55.592,676.21 C 50.041,676.21 45.603,679.687 45.603,685.411 C 45.603,691.136 50.118,695.782 55.669,695.782 C 58.28,695.782 60.664,694.747 62.456,693.059 C 63.143,693.349 63.313,693.31 64.179,693.391 C 63.978,694.326 63.873,695.296 63.873,696.296 C 63.873,703.662 69.683,709.642 76.825,709.642 C 83.967,709.642 90.406,703.902 90.406,696.536 C 90.406,694.859 90.34,693.299 89.792,691.823 C 89.568,690.784 90.97,689.56 92.21,691.557 C 101.851,714.203 69.868,738.538 52.757,730.21 C 55.433,737.812 69.455,740.709 86.091,749.315 C 117.959,717.796 125.259,714.203 89.916,751.169 C 95.992,754.522 100.808,759.049 108.92,764.032 C 133.139,744.332 136.963,746.422 112.86,767.508 C 117.225,771.464 121.211,776.833 125.425,782.094 C 139.396,768.551 147.276,766.234 127.41,784.635 C 129.759,787.722 133.1,791.044 135.341,794.624 C 145.306,788.83 147.759,790.024 137.542,798.68 C 140.401,803.628 142.502,809.306 145.078,815.22 C 158.659,778.83 139.647,726.321 100.125,690.232 Z M 35.398,679.617 C 35.398,682.182 37.534,683.723 40.021,683.723 C 42.509,683.727 44.421,682.182 44.421,679.617 C 44.421,677.052 42.397,674.97 39.909,674.97 C 37.422,674.97 35.398,677.052 35.398,679.617 Z M 17.081,679.154 C 17.081,681.328 18.796,683.093 20.901,683.093 C 23.014,683.093 24.729,681.328 24.729,679.154 C 24.729,676.979 23.014,675.214 20.905,675.214 C 18.796,675.214 17.081,676.979 17.081,679.154 Z M 61.061,696.937 C 48.894,700.182 47.04,694.156 43.216,689.869 C 39.284,685.461 32.509,681.301 27.108,683.379 C 22.74,685.06 15.853,692.221 20.967,696.01 C 25.139,697.98 31.048,693.345 41.13,700.877 C 45.07,704.122 43.216,707.019 40.319,705.86 C 38.264,705.041 36.634,703.728 34.988,701.688 C 33.25,699.487 30.353,700.645 30.469,702.5 C 30.005,706.439 30.94,714.621 34.757,719.07 C 37.538,722.315 43.679,721.967 45.765,713.276 C 47.488,706.084 54.456,707.598 51.907,713.392 C 49.508,721.411 50.578,727.603 57.121,729.152 C 74.503,732.165 86.439,717.332 90.317,705.342 C 78.212,718.375 61.177,710.148 61.061,696.937 Z" stroke-linejoin="miter" stroke="none" stroke-width="0.097" fill="#000000" marker-start="none" marker-end="none" stroke-miterlimit="79.8403193612775"/>
   </g>
  </g>
 </g>
</svg>
