<?xml version="1.0" standalone="no"?>
<!DOCTYPE svg PUBLIC "-//W3C//DTD SVG 1.1//EN" "http://www.w3.org/Graphics/SVG/1.1/DTD/svg11.dtd">
<!--Generator: Xara Designer (www.xara.com), SVG filter version: 3.0.0.4-->
<svg stroke-width="0.501" stroke-linejoin="bevel" fill-rule="evenodd" xmlns:xlink="http://www.w3.org/1999/xlink" xmlns="http://www.w3.org/2000/svg" version="1.1" overflow="visible" width="595.277pt" height="841.891pt" viewBox="0 0 595.277 841.891">
 <defs>
  <marker id="DefaultArrow2" markerUnits="strokeWidth" viewBox="0 0 1 1" markerWidth="1" markerHeight="1" overflow="visible" orient="auto">
   <!-- REF_ARROW_STRAIGHT (-2) -->
   <g transform="scale(0.0092592592)">
    <!-- 1/108 -->
    <path d="M -9 54 L -9 -54 L 117 0 z"/>
   </g>
  </marker>
  <marker id="DefaultArrow3" markerUnits="strokeWidth" viewBox="0 0 1 1" markerWidth="1" markerHeight="1" overflow="visible" orient="auto">
   <!-- REF_ARROW_ANGLED -->
   <g transform="scale(0.0092592592)">
    <path d="M -27 54 L -9 0 L -27 -54 L 135 0 z"/>
   </g>
  </marker>
  <marker id="DefaultArrow4" markerUnits="strokeWidth" viewBox="0 0 1 1" markerWidth="1" markerHeight="1" overflow="visible" orient="auto">
   <!-- REF_ARROW_ROUNDED -->
   <g transform="scale(0.0092592592)">
    <path d="M -9,0 L -9,-45 C -9,-51.708 2.808,-56.580 9,-54 L 117,-9 C 120.916,-7.369 126.000,-4.242 126,0 C 126,4.242 120.916,7.369 117,9 L 9,54 C 2.808,56.580 -9,51.708 -9,45 z"/>
   </g>
  </marker>
  <marker id="DefaultArrow5" markerUnits="strokeWidth" viewBox="0 0 1 1" markerWidth="1" markerHeight="1" overflow="visible" orient="auto">
   <!-- REF_ARROW_SPOT -->
   <g transform="scale(0.0092592592)">
    <path d="M -54, 0 C -54,29.807 -29.807,54 0,54 C 29.807,54 54,29.807 54,0 C 54,-29.807 29.807,-54 0,-54 C -29.807,-54 -54,-29.807 -54,0 z"/>
   </g>
  </marker>
  <marker id="DefaultArrow6" markerUnits="strokeWidth" viewBox="0 0 1 1" markerWidth="1" markerHeight="1" overflow="visible" orient="auto">
   <!-- REF_ARROW_DIAMOND -->
   <g transform="scale(0.0092592592)">
    <path d="M -63,0 L 0,63 L 63,0 L 0,-63 z"/>
   </g>
  </marker>
  <marker id="DefaultArrow7" markerUnits="strokeWidth" viewBox="0 0 1 1" markerWidth="1" markerHeight="1" overflow="visible" orient="auto">
   <!-- REF_ARROW_FEATHER -->
   <g transform="scale(0.0092592592)">
    <path d="M 18,-54 L 108,-54 L 63,0 L 108,54 L 18, 54 L -36,0 z"/>
   </g>
  </marker>
  <marker id="DefaultArrow8" markerUnits="strokeWidth" viewBox="0 0 1 1" markerWidth="1" markerHeight="1" overflow="visible" orient="auto">
   <!-- REF_ARROW_FEATHER2 -->
   <g transform="scale(0.0092592592)">
    <path d="M -36,0 L 18,-54 L 54,-54 L 18,-18 L 27,-18 L 63,-54 L 99,-54 L 63,-18 L 72,-18 L 108,-54 L 144,-54 L 90,0 L 144,54 L 108,54 L 72,18 L 63,18 L 99,54 L 63,54 L 27,18 L 18,18 L 54,54 L 18,54 z"/>
   </g>
  </marker>
  <marker id="DefaultArrow9" markerUnits="strokeWidth" viewBox="0 0 1 1" markerWidth="1" markerHeight="1" overflow="visible" orient="auto">
   <!-- REF_ARROW_HOLLOWDIAMOND -->
   <g transform="scale(0.0092592592)">
    <path d="M 0,45 L -45,0 L 0, -45 L 45, 0 z M 0, 63 L-63, 0 L 0, -63 L 63, 0 z"/>
   </g>
  </marker>
  <filter id="StainedFilter">
   <feBlend mode="multiply" in2="BackgroundImage" in="SourceGraphic" result="blend"/>
   <feComposite in="blend" in2="SourceAlpha" operator="in" result="comp"/>
  </filter>
  <filter id="BleachFilter">
   <feBlend mode="screen" in2="BackgroundImage" in="SourceGraphic" result="blend"/>
   <feComposite in="blend" in2="SourceAlpha" operator="in" result="comp"/>
  </filter>
  <filter id="InvertTransparencyBitmapFilter">
   <feComponentTransfer>
    <feFuncR type="gamma" amplitude="1.055" exponent=".416666666" offset="-0.055"/>
    <feFuncG type="gamma" amplitude="1.055" exponent=".416666666" offset="-0.055"/>
    <feFuncB type="gamma" amplitude="1.055" exponent=".416666666" offset="-0.055"/>
   </feComponentTransfer>
   <feComponentTransfer>
    <feFuncR type="linear" slope="-1" intercept="1"/>
    <feFuncG type="linear" slope="-1" intercept="1"/>
    <feFuncB type="linear" slope="-1" intercept="1"/>
    <feFuncA type="linear" slope="1" intercept="0"/>
   </feComponentTransfer>
   <feComponentTransfer>
    <feFuncR type="gamma" amplitude="1" exponent="2.4" offset="0"/>
    <feFuncG type="gamma" amplitude="1" exponent="2.4" offset="0"/>
    <feFuncB type="gamma" amplitude="1" exponent="2.4" offset="0"/>
   </feComponentTransfer>
  </filter>
 </defs>
 <g id="Document" fill="none" stroke="black" font-family="Times New Roman" font-size="16" transform="scale(1 -1)">
  <g id="Spread" transform="translate(0 -841.891)">
   <g id="Layer 1">
    <path d="M 18.137,675.231 C 17.145,675.789 16.788,677.037 17.342,678.03 C 19.519,681.926 23.817,684.976 29.644,687.373 L 35.287,689.33 L 33.165,813.121 C 33.138,814.273 34.071,815.22 35.223,815.22 L 51.299,815.22 C 52.428,815.22 53.357,814.292 53.357,813.162 L 53.357,805.826 L 57.386,807.171 L 57.816,812.782 C 57.907,813.88 58.849,814.735 59.965,814.676 L 71.22,814.141 C 72.313,814.09 73.182,813.185 73.182,812.092 L 73.205,804.578 L 76.886,805.104 L 77.33,812.211 C 77.394,813.299 78.299,814.145 79.388,814.145 L 90.913,814.145 C 92.051,814.145 92.971,813.212 92.962,812.078 L 92.861,768.869 L 95.166,768.869 L 96.904,774.298 C 97.16,775.066 97.837,775.629 98.651,775.711 L 103.864,776.26 C 104.816,776.361 105.712,775.793 106.027,774.888 L 108.273,768.366 L 113.555,768.545 L 115.023,772.949 C 115.302,773.79 116.093,774.357 116.981,774.357 L 124.664,774.357 C 125.391,774.357 126.077,773.96 126.438,773.328 L 129.731,767.68 L 134.021,767.347 L 134.131,812.636 C 134.131,813.811 135.114,814.744 136.285,814.685 L 147.535,814.136 C 148.102,814.109 148.6,813.857 148.953,813.468 L 149.474,812.055 L 149.671,805.822 L 154.276,805.634 L 154.436,812.403 C 154.459,813.505 155.346,814.397 156.453,814.411 L 167.36,814.612 C 168.49,814.639 169.423,813.747 169.455,812.618 L 169.537,805.502 L 174.129,805.429 L 174.266,812.705 C 174.266,813.848 175.217,814.79 176.383,814.749 L 187.556,814.411 C 188.667,814.379 189.555,813.473 189.555,812.362 L 189.815,692.307 L 197.535,691.004 C 200.462,690.469 203.48,689.874 206.604,689.225 C 207.724,688.996 208.424,687.894 208.195,686.792 C 207.967,685.672 206.865,684.972 205.762,685.201 C 159.014,694.983 136.358,690.862 126.196,680.417 C 125.4,679.603 124.101,679.585 123.283,680.376 C 122.469,681.171 122.45,682.47 123.241,683.289 C 126.594,686.733 130.984,689.481 136.591,691.434 L 136.737,691.471 L 121.028,691.9 C 99.831,692.253 80.449,691.836 64.392,690.3 C 40.236,687.986 24.947,683.202 20.936,676.026 C 20.378,675.034 19.13,674.677 18.137,675.231 Z M 39.376,690.464 L 43.968,691.53 C 49.94,692.756 56.681,693.693 63.994,694.397 C 67.891,694.768 71.975,695.074 76.228,695.321 L 88.58,695.847 L 88.846,810.029 L 81.313,810.029 L 80.888,803.174 C 80.828,802.2 80.088,801.404 79.127,801.267 L 71.444,800.165 C 70.209,799.995 69.098,800.947 69.098,802.2 L 69.07,810.125 L 61.767,810.473 L 61.387,805.493 C 61.319,804.669 60.77,803.965 59.988,803.7 L 51.948,801.02 C 50.608,800.572 49.241,801.573 49.241,802.977 L 49.241,811.104 L 37.313,811.104 L 39.376,690.464 Z M 185.708,692.925 L 185.443,810.359 L 178.364,810.574 L 178.231,803.334 C 178.231,802.191 177.284,801.258 176.136,801.285 L 167.493,801.422 C 166.395,801.436 165.503,802.31 165.471,803.416 L 165.394,810.464 L 158.502,810.336 L 158.342,803.457 C 158.319,802.319 157.372,801.409 156.22,801.45 L 147.526,801.779 C 146.954,801.793 146.442,802.044 146.081,802.428 L 145.546,803.855 L 145.358,810.125 L 138.237,810.473 L 137.963,695.632 L 138.274,695.632 C 144.919,695.651 167.072,695.184 181.016,693.588 L 185.708,692.925 Z M 133.856,695.715 L 134.012,763.217 L 128.336,763.656 C 127.664,763.715 127.06,764.09 126.726,764.676 L 123.479,770.241 L 118.462,770.241 L 117.008,765.878 C 116.738,765.06 115.979,764.502 115.124,764.479 L 106.892,764.205 C 105.991,764.168 105.172,764.731 104.875,765.586 L 102.666,771.998 L 100.416,771.76 L 98.632,766.176 C 98.353,765.33 97.567,764.753 96.675,764.753 L 92.852,764.753 L 92.687,695.962 L 101.175,696.09 L 100.873,727.357 C 100.873,734.634 105.287,741.603 112.083,741.603 C 118.517,741.603 126.507,735.699 126.507,728.034 L 126.301,695.907 L 133.856,695.715 Z M 159.558,767.324 L 159.284,787.35 L 163.853,787.423 L 164.127,767.397 L 159.558,767.324 Z M 61.735,768.421 L 61.46,787.08 L 66.029,787.149 L 66.304,768.49 L 61.735,768.421 Z" fill-rule="evenodd" stroke="none" stroke-width="2.287" fill="#000000" marker-start="none" marker-end="none" stroke-miterlimit="79.8403193612775"/>
   </g>
  </g>
 </g>
</svg>
