<?xml version="1.0" standalone="no"?>
<!DOCTYPE svg PUBLIC "-//W3C//DTD SVG 1.1//EN" "http://www.w3.org/Graphics/SVG/1.1/DTD/svg11.dtd">
<!--Generator: Xara Designer (www.xara.com), SVG filter version: 3.0.0.4-->
<svg stroke-width="0.501" stroke-linejoin="bevel" fill-rule="evenodd" xmlns:xlink="http://www.w3.org/1999/xlink" xmlns="http://www.w3.org/2000/svg" version="1.1" overflow="visible" width="595.277pt" height="841.891pt" viewBox="0 0 595.277 841.891">
 <defs>
  <marker id="DefaultArrow2" markerUnits="strokeWidth" viewBox="0 0 1 1" markerWidth="1" markerHeight="1" overflow="visible" orient="auto">
   <!-- REF_ARROW_STRAIGHT (-2) -->
   <g transform="scale(0.0092592592)">
    <!-- 1/108 -->
    <path d="M -9 54 L -9 -54 L 117 0 z"/>
   </g>
  </marker>
  <marker id="DefaultArrow3" markerUnits="strokeWidth" viewBox="0 0 1 1" markerWidth="1" markerHeight="1" overflow="visible" orient="auto">
   <!-- REF_ARROW_ANGLED -->
   <g transform="scale(0.0092592592)">
    <path d="M -27 54 L -9 0 L -27 -54 L 135 0 z"/>
   </g>
  </marker>
  <marker id="DefaultArrow4" markerUnits="strokeWidth" viewBox="0 0 1 1" markerWidth="1" markerHeight="1" overflow="visible" orient="auto">
   <!-- REF_ARROW_ROUNDED -->
   <g transform="scale(0.0092592592)">
    <path d="M -9,0 L -9,-45 C -9,-51.708 2.808,-56.580 9,-54 L 117,-9 C 120.916,-7.369 126.000,-4.242 126,0 C 126,4.242 120.916,7.369 117,9 L 9,54 C 2.808,56.580 -9,51.708 -9,45 z"/>
   </g>
  </marker>
  <marker id="DefaultArrow5" markerUnits="strokeWidth" viewBox="0 0 1 1" markerWidth="1" markerHeight="1" overflow="visible" orient="auto">
   <!-- REF_ARROW_SPOT -->
   <g transform="scale(0.0092592592)">
    <path d="M -54, 0 C -54,29.807 -29.807,54 0,54 C 29.807,54 54,29.807 54,0 C 54,-29.807 29.807,-54 0,-54 C -29.807,-54 -54,-29.807 -54,0 z"/>
   </g>
  </marker>
  <marker id="DefaultArrow6" markerUnits="strokeWidth" viewBox="0 0 1 1" markerWidth="1" markerHeight="1" overflow="visible" orient="auto">
   <!-- REF_ARROW_DIAMOND -->
   <g transform="scale(0.0092592592)">
    <path d="M -63,0 L 0,63 L 63,0 L 0,-63 z"/>
   </g>
  </marker>
  <marker id="DefaultArrow7" markerUnits="strokeWidth" viewBox="0 0 1 1" markerWidth="1" markerHeight="1" overflow="visible" orient="auto">
   <!-- REF_ARROW_FEATHER -->
   <g transform="scale(0.0092592592)">
    <path d="M 18,-54 L 108,-54 L 63,0 L 108,54 L 18, 54 L -36,0 z"/>
   </g>
  </marker>
  <marker id="DefaultArrow8" markerUnits="strokeWidth" viewBox="0 0 1 1" markerWidth="1" markerHeight="1" overflow="visible" orient="auto">
   <!-- REF_ARROW_FEATHER2 -->
   <g transform="scale(0.0092592592)">
    <path d="M -36,0 L 18,-54 L 54,-54 L 18,-18 L 27,-18 L 63,-54 L 99,-54 L 63,-18 L 72,-18 L 108,-54 L 144,-54 L 90,0 L 144,54 L 108,54 L 72,18 L 63,18 L 99,54 L 63,54 L 27,18 L 18,18 L 54,54 L 18,54 z"/>
   </g>
  </marker>
  <marker id="DefaultArrow9" markerUnits="strokeWidth" viewBox="0 0 1 1" markerWidth="1" markerHeight="1" overflow="visible" orient="auto">
   <!-- REF_ARROW_HOLLOWDIAMOND -->
   <g transform="scale(0.0092592592)">
    <path d="M 0,45 L -45,0 L 0, -45 L 45, 0 z M 0, 63 L-63, 0 L 0, -63 L 63, 0 z"/>
   </g>
  </marker>
  <filter id="StainedFilter">
   <feBlend mode="multiply" in2="BackgroundImage" in="SourceGraphic" result="blend"/>
   <feComposite in="blend" in2="SourceAlpha" operator="in" result="comp"/>
  </filter>
  <filter id="BleachFilter">
   <feBlend mode="screen" in2="BackgroundImage" in="SourceGraphic" result="blend"/>
   <feComposite in="blend" in2="SourceAlpha" operator="in" result="comp"/>
  </filter>
  <filter id="InvertTransparencyBitmapFilter">
   <feComponentTransfer>
    <feFuncR type="gamma" amplitude="1.055" exponent=".416666666" offset="-0.055"/>
    <feFuncG type="gamma" amplitude="1.055" exponent=".416666666" offset="-0.055"/>
    <feFuncB type="gamma" amplitude="1.055" exponent=".416666666" offset="-0.055"/>
   </feComponentTransfer>
   <feComponentTransfer>
    <feFuncR type="linear" slope="-1" intercept="1"/>
    <feFuncG type="linear" slope="-1" intercept="1"/>
    <feFuncB type="linear" slope="-1" intercept="1"/>
    <feFuncA type="linear" slope="1" intercept="0"/>
   </feComponentTransfer>
   <feComponentTransfer>
    <feFuncR type="gamma" amplitude="1" exponent="2.4" offset="0"/>
    <feFuncG type="gamma" amplitude="1" exponent="2.4" offset="0"/>
    <feFuncB type="gamma" amplitude="1" exponent="2.4" offset="0"/>
   </feComponentTransfer>
  </filter>
 </defs>
 <g id="Document" fill="none" stroke="black" font-family="Times New Roman" font-size="16" transform="scale(1 -1)">
  <g id="Spread" transform="translate(0 -841.891)">
   <g id="Layer 1">
    <path d="M 52.838,674.97 L 52.838,687.646 L 53.28,687.646 L 75.496,744.027 L 78.058,743.019 L 56.239,687.646 L 100.639,687.646 L 81.289,743.454 L 83.895,744.352 L 103.56,687.646 L 103.962,687.646 L 103.962,674.97 L 52.838,674.97 Z" stroke="none" fill="#000000" fill-rule="evenodd" stroke-width="2.756" marker-start="none" marker-end="none" stroke-miterlimit="79.8403193612775"/>
    <path d="M 86.855,691.399 C 85.333,692.402 84.38,693.802 84.017,695.555 C 83.713,697.004 83.89,698.371 84.523,699.638 C 80.671,699.308 76.852,699.407 73.11,699.897 C 73.682,698.613 73.798,697.247 73.451,695.825 C 73.021,694.077 72.007,692.721 70.448,691.779 C 68.882,690.843 67.212,690.584 65.47,691.008 C 63.729,691.438 62.373,692.457 61.436,694.011 C 60.494,695.571 60.224,697.241 60.654,698.982 C 60.996,700.361 61.695,701.484 62.742,702.355 C 59.226,703.574 55.853,705.155 52.679,707.073 C 52.679,705.739 52.276,704.494 51.472,703.364 C 50.419,701.909 48.975,701.033 47.173,700.74 C 45.382,700.438 43.723,700.823 42.268,701.865 C 40.813,702.918 39.937,704.362 39.645,706.158 C 39.342,707.955 39.727,709.609 40.769,711.063 C 41.634,712.265 42.775,713.075 44.148,713.466 C 41.375,716.024 38.857,718.889 36.663,722.036 C 36.101,720.769 35.191,719.783 33.94,719.082 C 32.359,718.218 30.683,718.035 28.93,718.531 C 27.183,719.033 25.849,720.08 24.979,721.651 C 24.108,723.216 23.926,724.903 24.427,726.656 C 24.929,728.408 25.971,729.73 27.541,730.606 C 28.793,731.301 30.11,731.549 31.466,731.362 C 30.6,733.39 29.845,735.495 29.217,737.678 C 28.567,739.926 28.071,742.186 27.729,744.446 C 26.682,743.57 25.436,743.085 24.015,743.013 C 22.223,742.913 20.63,743.487 19.275,744.711 C 17.924,745.928 17.18,747.449 17.092,749.24 C 16.993,751.032 17.566,752.625 18.778,753.98 C 20.002,755.336 21.523,756.07 23.314,756.169 C 24.758,756.24 26.065,755.882 27.222,755.1 C 27.426,758.93 28.049,762.694 29.057,766.332 C 27.691,765.934 26.307,766.017 24.945,766.574 C 23.281,767.246 22.085,768.443 21.374,770.117 C 20.658,771.799 20.642,773.49 21.313,775.155 C 21.981,776.82 23.177,778.016 24.858,778.726 C 26.538,779.437 28.225,779.465 29.889,778.787 C 31.196,778.258 32.21,777.409 32.921,776.257 C 34.602,779.569 36.635,782.7 38.984,785.599 C 37.638,785.769 36.448,786.348 35.439,787.336 C 34.145,788.581 33.483,790.135 33.45,791.959 C 33.416,793.778 34.023,795.355 35.268,796.643 C 36.514,797.944 38.074,798.606 39.893,798.639 C 41.717,798.672 43.287,798.06 44.588,796.82 C 45.652,795.779 46.28,794.555 46.473,793.138 C 49.388,795.536 52.591,797.636 56.041,799.383 C 54.839,800.127 53.963,801.19 53.456,802.574 C 52.822,804.255 52.894,805.947 53.649,807.601 C 54.41,809.265 55.633,810.422 57.319,811.045 C 58.995,811.679 60.692,811.612 62.346,810.857 C 64.01,810.092 65.167,808.868 65.796,807.187 C 66.292,805.853 66.353,804.525 65.972,803.224 C 69.665,804.238 73.374,804.834 77.055,805.038 C 76.262,806.189 75.899,807.49 75.965,808.94 C 76.041,810.731 76.775,812.263 78.125,813.486 C 79.47,814.721 81.063,815.3 82.848,815.211 C 84.645,815.135 86.171,814.401 87.395,813.057 C 88.63,811.712 89.208,810.125 89.125,808.328 C 89.054,806.884 88.569,805.622 87.676,804.558 C 91.462,803.991 95.16,803.021 98.699,801.675 C 98.429,803.092 98.638,804.47 99.327,805.793 C 100.154,807.38 101.46,808.466 103.195,809.011 C 104.932,809.562 106.619,809.419 108.211,808.587 C 109.799,807.76 110.884,806.46 111.435,804.718 C 111.976,802.982 111.838,801.296 111.006,799.703 C 110.355,798.446 109.413,797.52 108.211,796.93 C 111.341,794.946 114.285,792.626 116.957,790.014 C 117.255,791.347 117.961,792.483 119.052,793.409 C 120.414,794.572 122.022,795.084 123.847,794.941 C 125.66,794.786 127.17,794.032 128.334,792.659 C 129.496,791.298 130.003,789.683 129.86,787.87 C 129.716,786.051 128.951,784.535 127.584,783.373 C 126.465,782.424 125.186,781.912 123.77,781.846 C 125.88,778.726 127.677,775.337 129.104,771.722 C 129.975,772.878 131.138,773.656 132.594,774.036 C 134.335,774.494 136.005,774.252 137.575,773.325 C 139.152,772.405 140.177,771.06 140.629,769.324 C 141.086,767.588 140.844,765.913 139.918,764.348 C 138.998,762.771 137.664,761.74 135.917,761.294 C 134.561,760.93 133.255,761.002 132.004,761.493 C 132.67,757.75 132.919,754.003 132.781,750.315 C 134.004,750.998 135.344,751.241 136.788,751.043 C 138.557,750.784 140.011,749.913 141.108,748.447 C 142.195,746.992 142.63,745.356 142.371,743.581 C 142.117,741.8 141.241,740.357 139.78,739.265 C 138.325,738.168 136.683,737.738 134.913,737.998 C 133.492,738.196 132.284,738.797 131.309,739.778 C 130.422,736.146 129.154,732.63 127.534,729.284 C 128.857,729.422 130.135,729.141 131.342,728.441 C 132.896,727.543 133.911,726.181 134.374,724.423 C 134.842,722.66 134.621,720.984 133.724,719.424 C 132.814,717.875 131.464,716.861 129.7,716.399 C 127.942,715.93 126.261,716.156 124.707,717.049 C 123.406,717.809 122.491,718.868 121.973,720.235 C 119.675,717.214 117.046,714.442 114.125,711.962 C 115.443,711.532 116.517,710.722 117.327,709.543 C 118.357,708.071 118.705,706.412 118.38,704.621 C 118.054,702.83 117.145,701.397 115.662,700.382 C 114.191,699.352 112.537,699.01 110.741,699.33 C 108.955,699.66 107.528,700.57 106.502,702.042 C 105.671,703.232 105.29,704.538 105.362,705.938 C 102.133,704.169 98.666,702.719 94.995,701.628 C 95.998,700.73 96.637,699.584 96.924,698.211 C 97.282,696.453 96.957,694.794 95.954,693.267 C 94.951,691.752 93.557,690.793 91.798,690.429 C 90.045,690.076 88.381,690.401 86.855,691.399 Z M 85.493,702.51 L 84.926,705.475 C 79.354,704.88 73.682,705.271 68.205,706.671 L 67.433,703.899 C 67.819,703.877 68.215,703.811 68.612,703.717 C 69.097,703.595 69.56,703.425 69.99,703.221 C 75,702.185 80.225,701.92 85.493,702.51 Z M 89.164,703.254 C 89.715,703.364 90.261,703.409 90.795,703.386 C 91.81,703.612 92.818,703.871 93.837,704.169 C 97.971,705.36 101.846,707.04 105.4,709.124 L 103.653,711.631 C 98.704,708.738 93.336,706.814 87.825,705.878 L 88.244,703 C 88.536,703.105 88.839,703.183 89.164,703.254 Z M 64.721,704.598 L 65.393,707.481 C 60.174,709.162 55.187,711.791 50.684,715.363 L 48.837,713.125 C 49.207,712.948 49.565,712.739 49.924,712.491 C 50.381,712.155 50.788,711.78 51.152,711.355 C 55.291,708.441 59.877,706.158 64.721,704.598 Z M 84.408,708.192 L 78.015,741.745 L 68.949,709.328 C 74.014,708.043 79.249,707.669 84.408,708.192 Z M 102.072,713.913 L 82.49,742.109 L 87.416,708.611 C 92.515,709.487 97.487,711.251 102.072,713.913 Z M 108.217,711.129 C 108.641,711.428 109.082,711.664 109.55,711.863 C 113.954,715.076 117.762,718.983 120.854,723.376 L 118.214,724.98 C 116.996,723.265 115.641,721.607 114.163,720.031 C 111.694,717.402 108.994,715.114 106.123,713.186 L 107.683,710.722 C 107.853,710.859 108.029,710.997 108.217,711.129 Z M 66.028,710.181 L 73.793,743.255 L 52.447,717.489 C 56.608,714.199 61.216,711.764 66.028,710.181 Z M 112.146,721.926 C 113.491,723.359 114.726,724.858 115.844,726.412 L 86.441,744.226 L 104.635,715.517 C 107.318,717.33 109.837,719.463 112.146,721.926 Z M 46.66,714.911 L 48.441,717.253 C 48.192,717.484 47.95,717.71 47.702,717.941 C 43.778,721.624 40.631,725.828 38.261,730.347 L 35.693,729.069 C 35.969,728.739 36.211,728.386 36.426,728 C 36.69,727.52 36.894,727.03 37.026,726.539 C 39.667,722.142 42.924,718.234 46.66,714.911 Z M 50.127,719.463 L 70.547,746.347 L 40.736,731.571 C 42.962,727.344 45.916,723.415 49.598,719.958 C 49.774,719.788 49.95,719.628 50.127,719.463 Z M 122.414,726.021 C 122.684,726.49 123.004,726.915 123.362,727.294 C 126.107,732.062 128.069,737.286 129.132,742.727 L 126.018,743.129 C 124.943,737.645 122.888,732.31 119.835,727.405 L 122.276,725.779 C 122.32,725.861 122.365,725.939 122.414,726.021 Z M 123.274,743.476 L 89.175,747.786 L 117.531,728.937 C 120.342,733.478 122.254,738.406 123.274,743.476 Z M 34.387,731.571 L 36.977,732.988 C 34.696,738.086 33.361,743.514 32.992,748.993 L 30.127,748.877 C 30.11,748.701 30.082,748.524 30.055,748.348 C 30.32,745.052 30.914,741.734 31.868,738.439 C 32.551,736.047 33.394,733.759 34.387,731.571 Z M 39.402,734.322 L 68.822,750.481 L 35.748,749.108 C 36.101,744.043 37.324,739.039 39.402,734.322 Z M 129.419,745.509 C 129.551,746.369 129.805,747.114 129.695,746.281 C 130.389,752.007 130.102,757.904 128.713,763.769 L 125.682,762.859 C 126.955,757.331 127.226,751.622 126.487,746.011 L 129.419,745.509 Z M 123.037,762.055 L 90.217,752.161 L 123.77,746.469 C 124.442,751.66 124.194,756.946 123.037,762.055 Z M 29.901,751.704 L 32.882,751.958 C 32.849,757.442 33.775,762.936 35.654,768.172 L 32.948,769.247 C 32.893,769.159 32.838,769.07 32.783,768.994 C 30.838,763.51 29.829,757.668 29.901,751.704 Z M 35.638,752.189 L 68.954,754.967 L 38.222,767.153 C 36.492,762.314 35.632,757.249 35.638,752.189 Z M 89.395,756.56 L 122.26,764.986 C 120.788,769.903 118.44,774.604 115.233,778.847 L 89.395,756.56 Z M 70.883,759.007 L 47.763,782.645 C 47.719,782.601 47.674,782.557 47.63,782.513 C 44.081,778.732 41.326,774.494 39.358,770.002 L 70.883,759.007 Z M 86.865,760.269 L 113.32,781.217 C 112.339,782.342 111.292,783.427 110.185,784.475 C 107.44,787.049 104.452,789.203 101.311,790.945 L 86.865,760.269 Z M 74.289,761.933 L 62.742,793.023 C 58.135,791.088 53.803,788.349 49.945,784.806 L 74.289,761.933 Z M 83.052,762.644 L 98.594,792.334 C 93.87,794.533 88.844,795.856 83.763,796.297 L 83.052,762.644 Z M 78.594,763.185 L 80.698,796.457 C 75.595,796.55 70.481,795.762 65.609,794.108 L 78.594,763.185 Z M 124.938,765.676 L 127.864,766.425 C 127.815,766.711 127.771,766.998 127.749,767.285 C 125.952,773.017 123.208,778.209 119.736,782.733 L 117.333,780.666 C 120.821,776.081 123.356,770.994 124.938,765.676 Z M 45.613,784.403 C 45.685,784.481 45.756,784.552 45.822,784.623 L 43.75,786.745 C 43.657,786.674 43.574,786.619 43.48,786.558 C 39.446,782.254 36.211,777.282 33.919,771.898 L 36.734,770.912 C 38.834,775.761 41.788,780.33 45.613,784.403 Z M 115.486,782.932 L 117.867,784.822 C 117.729,785.026 117.602,785.246 117.487,785.467 C 113.584,789.859 108.944,793.524 103.835,796.297 L 102.491,793.453 C 105.891,791.585 109.115,789.269 112.075,786.492 C 113.287,785.351 114.422,784.161 115.486,782.932 Z M 61.784,795.614 L 60.725,798.457 C 60.654,798.441 60.582,798.429 60.511,798.418 C 54.922,796.065 49.945,792.78 45.707,788.79 L 47.928,786.707 C 52.089,790.565 56.785,793.536 61.784,795.614 Z M 99.872,794.781 L 101.3,797.504 C 101.212,797.565 101.129,797.631 101.052,797.697 C 95.684,800.182 89.869,801.736 83.885,802.21 L 83.818,799.058 C 89.318,798.606 94.764,797.179 99.872,794.781 Z M 80.875,799.212 L 81.073,802.287 C 80.974,802.31 80.875,802.332 80.787,802.359 C 75.948,802.436 71.015,801.814 66.132,800.408 C 65.184,800.127 64.253,799.835 63.338,799.51 L 64.534,796.655 C 69.808,798.468 75.347,799.328 80.875,799.212 Z" stroke="none" fill="#000000" fill-rule="evenodd" stroke-width="2.756" marker-start="none" marker-end="none" stroke-miterlimit="79.8403193612775"/>
   </g>
  </g>
 </g>
</svg>
