<?xml version="1.0" standalone="no"?>
<!DOCTYPE svg PUBLIC "-//W3C//DTD SVG 1.1//EN" "http://www.w3.org/Graphics/SVG/1.1/DTD/svg11.dtd">
<!--Generator: Xara Designer (www.xara.com), SVG filter version: 3.0.0.4-->
<svg stroke-width="0.501" stroke-linejoin="bevel" fill-rule="evenodd" xmlns:xlink="http://www.w3.org/1999/xlink" xmlns="http://www.w3.org/2000/svg" version="1.1" overflow="visible" width="595.277pt" height="841.891pt" viewBox="0 0 595.277 841.891">
 <defs>
  <marker id="DefaultArrow2" markerUnits="strokeWidth" viewBox="0 0 1 1" markerWidth="1" markerHeight="1" overflow="visible" orient="auto">
   <!-- REF_ARROW_STRAIGHT (-2) -->
   <g transform="scale(0.0092592592)">
    <!-- 1/108 -->
    <path d="M -9 54 L -9 -54 L 117 0 z"/>
   </g>
  </marker>
  <marker id="DefaultArrow3" markerUnits="strokeWidth" viewBox="0 0 1 1" markerWidth="1" markerHeight="1" overflow="visible" orient="auto">
   <!-- REF_ARROW_ANGLED -->
   <g transform="scale(0.0092592592)">
    <path d="M -27 54 L -9 0 L -27 -54 L 135 0 z"/>
   </g>
  </marker>
  <marker id="DefaultArrow4" markerUnits="strokeWidth" viewBox="0 0 1 1" markerWidth="1" markerHeight="1" overflow="visible" orient="auto">
   <!-- REF_ARROW_ROUNDED -->
   <g transform="scale(0.0092592592)">
    <path d="M -9,0 L -9,-45 C -9,-51.708 2.808,-56.580 9,-54 L 117,-9 C 120.916,-7.369 126.000,-4.242 126,0 C 126,4.242 120.916,7.369 117,9 L 9,54 C 2.808,56.580 -9,51.708 -9,45 z"/>
   </g>
  </marker>
  <marker id="DefaultArrow5" markerUnits="strokeWidth" viewBox="0 0 1 1" markerWidth="1" markerHeight="1" overflow="visible" orient="auto">
   <!-- REF_ARROW_SPOT -->
   <g transform="scale(0.0092592592)">
    <path d="M -54, 0 C -54,29.807 -29.807,54 0,54 C 29.807,54 54,29.807 54,0 C 54,-29.807 29.807,-54 0,-54 C -29.807,-54 -54,-29.807 -54,0 z"/>
   </g>
  </marker>
  <marker id="DefaultArrow6" markerUnits="strokeWidth" viewBox="0 0 1 1" markerWidth="1" markerHeight="1" overflow="visible" orient="auto">
   <!-- REF_ARROW_DIAMOND -->
   <g transform="scale(0.0092592592)">
    <path d="M -63,0 L 0,63 L 63,0 L 0,-63 z"/>
   </g>
  </marker>
  <marker id="DefaultArrow7" markerUnits="strokeWidth" viewBox="0 0 1 1" markerWidth="1" markerHeight="1" overflow="visible" orient="auto">
   <!-- REF_ARROW_FEATHER -->
   <g transform="scale(0.0092592592)">
    <path d="M 18,-54 L 108,-54 L 63,0 L 108,54 L 18, 54 L -36,0 z"/>
   </g>
  </marker>
  <marker id="DefaultArrow8" markerUnits="strokeWidth" viewBox="0 0 1 1" markerWidth="1" markerHeight="1" overflow="visible" orient="auto">
   <!-- REF_ARROW_FEATHER2 -->
   <g transform="scale(0.0092592592)">
    <path d="M -36,0 L 18,-54 L 54,-54 L 18,-18 L 27,-18 L 63,-54 L 99,-54 L 63,-18 L 72,-18 L 108,-54 L 144,-54 L 90,0 L 144,54 L 108,54 L 72,18 L 63,18 L 99,54 L 63,54 L 27,18 L 18,18 L 54,54 L 18,54 z"/>
   </g>
  </marker>
  <marker id="DefaultArrow9" markerUnits="strokeWidth" viewBox="0 0 1 1" markerWidth="1" markerHeight="1" overflow="visible" orient="auto">
   <!-- REF_ARROW_HOLLOWDIAMOND -->
   <g transform="scale(0.0092592592)">
    <path d="M 0,45 L -45,0 L 0, -45 L 45, 0 z M 0, 63 L-63, 0 L 0, -63 L 63, 0 z"/>
   </g>
  </marker>
  <filter id="StainedFilter">
   <feBlend mode="multiply" in2="BackgroundImage" in="SourceGraphic" result="blend"/>
   <feComposite in="blend" in2="SourceAlpha" operator="in" result="comp"/>
  </filter>
  <filter id="BleachFilter">
   <feBlend mode="screen" in2="BackgroundImage" in="SourceGraphic" result="blend"/>
   <feComposite in="blend" in2="SourceAlpha" operator="in" result="comp"/>
  </filter>
  <filter id="InvertTransparencyBitmapFilter">
   <feComponentTransfer>
    <feFuncR type="gamma" amplitude="1.055" exponent=".416666666" offset="-0.055"/>
    <feFuncG type="gamma" amplitude="1.055" exponent=".416666666" offset="-0.055"/>
    <feFuncB type="gamma" amplitude="1.055" exponent=".416666666" offset="-0.055"/>
   </feComponentTransfer>
   <feComponentTransfer>
    <feFuncR type="linear" slope="-1" intercept="1"/>
    <feFuncG type="linear" slope="-1" intercept="1"/>
    <feFuncB type="linear" slope="-1" intercept="1"/>
    <feFuncA type="linear" slope="1" intercept="0"/>
   </feComponentTransfer>
   <feComponentTransfer>
    <feFuncR type="gamma" amplitude="1" exponent="2.4" offset="0"/>
    <feFuncG type="gamma" amplitude="1" exponent="2.4" offset="0"/>
    <feFuncB type="gamma" amplitude="1" exponent="2.4" offset="0"/>
   </feComponentTransfer>
  </filter>
 </defs>
 <g id="Document" fill="none" stroke="black" font-family="Times New Roman" font-size="16" transform="scale(1 -1)">
  <g id="Spread" transform="translate(0 -841.891)">
   <g id="Layer 1">
    <path d="M 66.443,675.545 C 69.338,675.574 71.543,676.312 69.78,675.849 C 70.107,675.908 68.462,675.557 66.443,675.545 Z M 64.207,675.707 C 64.915,675.586 65.746,675.538 66.443,675.545 C 65.769,675.542 64.964,675.59 64.207,675.707 Z M 50.924,675.822 C 53.698,675.817 56.169,675.921 58.551,675.951 C 56.239,675.92 53.73,675.813 50.924,675.822 Z M 46.286,676.093 L 48.292,675.912 C 46.761,676.025 46.268,676.081 46.286,676.093 Z M 43.852,676.551 L 45.013,676.292 C 43.965,676.5 43.539,676.613 43.852,676.551 Z M 73.925,676.435 C 74.83,676.477 82.123,677.552 83.743,678.042 C 84.234,678.187 84.847,678.184 83.863,678.051 C 84.261,678.14 83.986,678.105 83.742,678.033 C 82.128,677.544 74.866,676.474 73.964,676.432 L 73.801,676.417 L 73.925,676.435 Z M 41.787,677.311 L 42.227,677.102 C 41.634,677.363 41.301,677.552 41.787,677.311 Z M 87.043,678.305 C 89.551,679.139 92.245,679.772 88.168,678.632 C 89.572,679.074 88.277,678.709 87.028,678.294 C 86.606,678.156 86.029,678.163 85.301,678.167 C 86.039,678.173 86.619,678.166 87.043,678.305 Z M 94.717,680.536 C 95.135,680.666 95.618,680.771 94.917,680.58 C 95.103,680.639 94.879,680.58 94.671,680.516 L 93.54,680.193 L 94.717,680.536 Z M 96.839,680.933 C 96.638,680.913 96.361,680.876 95.821,680.782 C 96.68,680.939 97.259,681.003 96.839,680.933 Z M 98.92,681.087 C 99.071,681.109 98.425,681.077 97.017,680.954 C 99.101,681.147 100.465,681.18 98.92,681.087 Z M 109.436,681.253 C 110.398,681.314 111.276,681.503 111.974,681.768 C 112.015,681.7 110.766,681.321 109.329,681.23 C 107.357,681.102 104.527,681.183 100.599,681.146 C 104.614,681.206 107.456,681.125 109.436,681.253 Z M 25.853,681.613 C 28.02,681.116 31.013,681.271 32.788,681.253 L 32.905,681.23 C 30.237,681.219 27.207,681.14 25.853,681.613 Z M 113.769,682.631 C 113.86,682.658 113.503,682.45 112.44,681.967 L 113.769,682.631 Z M 36.442,695.386 C 36.434,695.385 36.427,695.384 36.42,695.384 C 36.435,697.278 37.045,699.192 38.019,700.973 C 39.087,703.638 37.169,706.804 35.462,707.23 C 34.971,707.352 34.446,707.328 34.145,707.656 C 33.802,708.028 33.784,709.33 34.063,710.052 C 34.031,710.049 33.993,710.057 33.965,710.079 C 33.243,710.581 32.751,711.041 32.519,711.452 C 32.278,711.893 32.325,712.291 32.689,712.611 C 33.098,712.959 33.909,713.208 35.102,713.353 C 35.12,713.353 35.262,713.371 35.301,713.376 C 36,713.454 36.826,713.498 37.766,713.519 L 37.895,713.395 C 38.516,714.27 38.846,714.901 39.132,715.62 C 38.887,718.061 38.894,720.133 39,721.986 C 37.823,722.154 38.185,723.6 39.112,723.569 C 38.38,728.579 39.354,725.827 39.472,727.383 C 39.537,728.243 39.595,729.087 39.596,729.941 C 33.432,731.437 29.441,734.172 26.878,738.297 L 25.678,738.681 C 25.214,738.908 25.576,739.617 26.114,739.381 L 39.267,735.057 C 40.292,735.558 41.311,735.831 42.34,735.964 L 42.104,738.709 L 41.669,738.659 C 41.589,738.649 41.519,738.709 41.511,738.788 C 41.501,738.866 41.561,738.945 41.641,738.954 L 42.077,739 L 41.974,740.225 C 41.959,740.386 42.081,740.532 42.242,740.545 C 42.406,740.559 42.549,740.438 42.568,740.274 L 42.669,739.075 L 43.027,739.116 C 43.109,739.13 43.184,739.071 43.194,738.991 C 43.197,738.908 43.142,738.833 43.062,738.82 L 42.692,738.778 L 42.924,736.03 C 43.04,736.038 43.153,736.045 43.267,736.053 L 47.137,749.192 C 47.119,749.211 47.114,749.23 47.099,749.249 C 46.896,749.559 46.91,750.657 46.711,751.134 C 46.353,751.983 45.442,752.556 45.154,753.466 C 44.992,754 45.024,755.01 44.82,755.468 C 44.648,755.858 44.017,756.085 43.823,756.298 C 43.197,756.989 43.197,757.855 42.77,758.467 C 42.376,759.027 41.089,759.778 41.524,761.156 C 41.58,761.34 41.673,761.536 41.798,761.742 C 41.816,761.851 41.855,761.93 41.9,762 L 40.48,764.761 L 40.913,765.501 L 42.483,762.439 L 45.645,764.416 L 45.7,764.497 C 45.748,764.561 45.844,764.576 45.909,764.529 C 45.922,764.52 45.932,764.506 45.946,764.492 L 47.976,767.125 L 48.232,769.428 L 47.991,777.719 C 47.957,778.193 48.751,778.263 48.726,777.556 L 48.754,776.856 L 49.851,775.94 C 50.157,775.703 51.325,776.549 52.02,776.315 C 52.795,776.056 53.431,775.147 53.695,774.527 L 59.609,782.183 L 59.405,791.917 L 58.945,792.496 L 58.934,792.495 L 58.926,792.519 L 58.895,792.558 L 58.913,792.561 L 58.657,793.361 L 57.231,793.176 L 57.325,793.997 L 58.534,794.144 L 68.351,798.537 L 68.26,813.755 C 67.809,814.145 67.931,814.698 68.213,815.005 C 68.479,815.293 69.068,815.273 69.388,815.058 C 69.753,814.814 69.788,814.096 69.489,813.796 L 69.477,813.57 L 70.713,812.307 C 71.915,812.185 72.895,813.368 74.051,813.287 C 75.922,813.153 75.853,810.86 79.17,810.948 C 80.322,810.981 81.413,810.523 80.618,807.983 C 80.305,806.988 80.74,806.164 81.395,806.143 C 82.086,806.12 82.021,805.259 82.174,804.65 C 82.596,802.98 84.356,802.959 83.621,802.023 C 82.299,801.893 80.134,802.231 79.148,802.47 C 76.823,803.031 77.902,804.317 75.387,804.272 C 72.915,804.026 72.223,805.858 70.224,806.192 L 69.56,805.685 L 69.629,798.636 L 79.764,796.796 L 81.554,797.014 L 81.703,796.37 L 80.413,796.201 L 80.611,795.892 L 80.616,795.872 L 80.618,795.873 C 83.64,792.356 86.277,788.898 88.409,785.506 L 94.582,788.524 L 94.773,803.682 L 95.765,803.655 L 95.75,801.144 L 96.579,800.457 C 97.066,800.489 98.476,800.258 99.156,800.356 C 101.28,800.35 100.122,798.035 102.829,798.517 C 103.585,798.65 104.855,797.629 104.217,796.397 C 103.968,795.916 103.737,795.311 103.789,794.92 C 103.941,793.811 105.446,793.726 104.823,792.053 C 103.862,791.892 103.469,792.762 102.971,792.872 C 102.354,793.008 102.241,792.907 101.404,793.549 C 100.728,794.067 100.535,795.024 99.571,795.383 C 98.439,795.802 96.846,794.101 95.937,795.454 L 95.705,795.365 L 95.649,788.584 L 103.806,787.527 L 104.662,787.665 L 104.798,787.023 L 102.66,786.666 L 106.738,784.658 C 106.794,784.626 106.831,784.56 106.819,784.499 L 109.808,784.022 L 110.197,784.658 C 110.261,784.763 110.397,784.797 110.502,784.735 C 110.609,784.666 110.637,784.533 110.572,784.431 L 110.577,784.431 C 114.946,781.525 113.073,780.658 114.646,779.059 C 115.779,777.905 116.923,777.775 118.363,775.926 C 119.769,774.365 119.378,773.173 120.531,771.416 C 121.246,769.974 122.184,770.223 122.539,769.762 C 123.478,768.543 124.134,768.072 124.871,767.185 C 125.496,766.429 126.329,766.11 127.424,766.258 C 128.601,766.198 129.348,764.075 128.633,762.99 C 128.281,762.527 127.919,762.848 127.957,763.273 C 128.164,764.9 127.284,765.492 125.745,765.468 C 124.314,765.293 123.412,767.338 122.363,768.279 C 121.426,769.304 120.569,768.978 119.129,770.953 C 118.552,771.735 118.568,772.718 117.58,773.512 C 116.633,774.513 115.416,775.017 116.245,773.687 L 117.681,771.154 C 118.617,769.506 118.938,767.94 119.138,766.744 C 119.416,765.633 121.585,764.525 121.968,762.467 C 122.108,761.424 122.428,760.52 123.49,760.238 C 124.328,759.946 125.422,758.907 125.811,758.012 C 125.931,757.655 125.946,757.355 126.329,757.178 C 126.716,757.062 126.835,756.984 126.608,756.627 C 126.2,756.475 125.505,756.984 125.296,757.373 C 124.959,758.05 124.087,758.977 122.793,759.268 C 121.844,759.319 121.246,760.256 121.014,761.044 C 120.741,763.135 118.855,763.689 117.982,765.147 C 116.779,767.154 117.305,769.99 114.97,771.486 C 113.942,772.144 113.052,773.163 112.487,774.284 C 111.491,777.278 109.89,779.327 108.17,780.639 C 108.317,780.704 108.733,780.893 108.872,780.969 L 108.649,781.279 L 108.464,780.982 C 108.398,780.88 108.262,780.843 108.163,780.914 C 108.055,780.973 108.023,781.113 108.084,781.218 L 108.366,781.668 L 106.484,784.301 C 106.448,784.351 106.453,784.407 106.475,784.454 L 102.467,786.428 L 102.718,785.664 L 102.719,785.659 L 102.722,785.659 C 109.12,775.717 113.913,765.636 109.831,754.773 C 105.836,756.97 101.084,758.323 95.631,758.899 L 95.631,758.513 L 103.083,754.968 L 109.488,754.049 L 112.996,753.739 L 113.089,754.096 C 112.603,754.212 112.532,754.707 113.218,754.588 C 113.792,754.226 114.029,753.573 113.618,752.937 C 113.96,751.933 113.691,751.473 112.862,751.52 C 112.361,751.774 112.135,752.03 112.958,752.279 L 113.037,752.897 L 108.718,753.443 C 112.639,748.307 116.378,743.262 118.561,738.416 L 126.35,745.303 L 126.397,745.96 L 127.064,745.913 L 127.052,745.54 L 127.575,745.517 L 127.587,744.972 L 126.999,744.999 L 126.834,742.67 C 127.087,742.522 127.25,742.233 127.227,741.912 C 127.195,741.468 126.821,741.132 126.392,741.163 C 125.963,741.194 125.64,741.579 125.672,742.022 C 125.694,742.343 125.896,742.607 126.167,742.717 L 126.284,744.359 L 118.867,737.712 C 119.614,735.937 120.138,734.186 120.374,732.471 L 123.975,726.738 L 126.959,726.18 L 126.764,725.61 L 125.663,725.718 C 125.306,724.907 123.183,725.74 123.012,726.21 C 122.13,725.418 120.29,726.042 119.889,726.599 C 119.476,725.362 118.844,724.147 117.96,722.959 C 117.937,718.802 117.184,716.045 115.606,714.827 C 114.159,713.718 112.125,713.959 109.557,715.411 C 109.565,713.056 109.632,710.201 109.659,709.803 C 110.374,709.872 110.947,710.068 111.577,710.372 C 111.305,711.044 111.822,711.355 112.763,711.11 C 112.867,710.598 112.599,710.16 112.11,710.201 C 111.309,709.265 110.276,708.699 109.242,708.621 C 108.514,708.496 107.531,709.162 107.174,709.539 C 107.258,709.288 107.361,709.039 107.462,708.773 C 108.086,706.446 112.791,704.59 110.111,697.853 L 110.205,698.03 C 110.227,698.032 110.25,698.034 110.272,698.036 C 110.017,697.526 109.713,696.987 109.348,696.418 C 105.383,694.524 100.804,692.845 95.433,691.421 C 72.763,687.233 79.815,689.732 40.821,687.674 C 37.372,689.965 36.233,692.631 36.442,695.386 Z M 39.943,688.402 L 39.439,688.844 C 39.13,689.095 39.455,688.794 39.943,688.402 Z M 39.081,689.175 L 38.547,689.747 C 38.283,690.019 38.543,689.708 39.081,689.175 Z M 38.356,689.972 L 37.902,690.573 C 37.621,690.968 37.821,690.65 38.356,689.972 Z M 37.656,690.963 C 37.278,691.615 37.134,691.942 37.42,691.358 L 37.656,690.963 Z M 118.447,691.779 C 119.052,691.998 121.295,692.741 123.11,693.639 C 122.427,693.117 119.275,692.058 118.386,691.742 C 118.403,691.758 118.423,691.771 118.447,691.779 Z M 109.75,697.176 C 109.929,697.489 110.073,697.764 109.806,697.277 L 109.75,697.176 Z M 109.177,709.78 C 109.28,709.79 109.242,713.195 109.2,715.623 C 108.847,715.832 108.492,716.059 108.12,716.315 C 107.754,716 107.05,715.347 106.637,715.049 C 107.231,712.804 107.411,711.02 107.035,709.961 C 107.637,709.853 108.602,709.73 109.177,709.78 Z M 34.131,710.322 L 34.545,710.526 L 33.621,712.755 C 33.288,712.648 33.048,712.522 32.889,712.384 C 32.64,712.171 32.603,711.92 32.784,711.596 C 32.876,711.421 33.039,711.226 34.131,710.322 Z M 35.79,711.266 L 35.133,713.056 C 34.652,713.001 34.244,712.927 33.909,712.839 L 34.809,710.661 C 35.143,710.842 35.471,711.044 35.79,711.266 Z M 36.963,712.245 L 36.609,713.182 C 36.18,713.158 35.785,713.13 35.429,713.093 L 36.042,711.447 C 36.361,711.688 36.667,711.954 36.963,712.245 Z M 37.753,713.218 C 37.473,713.213 37.191,713.205 36.918,713.195 L 37.191,712.482 C 37.535,712.853 37.853,713.255 37.753,713.218 Z M 115.332,715.18 C 116.668,716.203 117.417,718.575 117.506,722.377 C 116.357,720.973 114.845,719.609 112.921,718.289 C 111.982,717.366 110.842,717.02 109.57,717.106 C 109.562,716.751 109.557,716.345 109.557,715.926 C 112.181,714.387 114.071,714.215 115.332,715.18 Z M 74.343,716.356 L 74.246,717.13 L 72.859,717.153 L 72.97,715.884 L 73.893,715.884 C 74.041,716.041 74.194,716.198 74.343,716.356 Z M 74.396,715.884 L 74.393,715.977 C 74.361,715.948 74.334,715.915 74.306,715.884 L 74.396,715.884 Z M 75.941,715.884 L 75.742,717.106 L 75.436,717.106 C 75.223,716.866 75.005,716.63 74.783,716.392 L 74.848,715.884 L 75.941,715.884 Z M 77.702,715.884 L 77.467,717.07 L 76.196,717.093 L 76.391,715.884 L 77.702,715.884 Z M 79.409,715.884 L 79.134,717.038 L 77.921,717.06 L 78.157,715.884 L 79.409,715.884 Z M 79.867,715.884 L 82.283,715.915 C 84.228,716.203 84.688,718.4 84.928,720.871 C 84.928,720.871 84.924,720.871 84.928,720.875 L 84.928,720.871 C 84.989,720.893 85.095,720.945 85.11,721.01 L 86.138,726.15 C 84.336,725.372 82.425,724.499 80.41,723.544 C 79.844,722.714 79.264,721.887 78.653,721.064 L 79.867,715.884 Z M 109.177,717.148 C 109.126,717.153 109.075,717.158 109.024,717.166 C 108.843,716.982 108.653,716.801 108.464,716.619 C 108.709,716.449 108.953,716.296 109.19,716.147 C 109.186,716.522 109.177,716.866 109.177,717.148 Z M 72.479,716.397 L 72.377,717.617 C 72.179,717.491 71.98,717.376 71.784,717.255 L 72.479,716.397 Z M 75.042,717.111 L 74.695,717.122 L 74.732,716.777 C 74.838,716.889 74.941,717.006 75.042,717.111 Z M 107.355,717.201 L 111.672,722.174 C 111.962,722.494 112.422,722.104 112.074,721.673 L 110.836,719.934 L 111.128,719.726 C 110.7,719.019 110.106,718.393 109.589,717.789 C 109.585,717.713 109.585,717.63 109.58,717.551 C 110.846,717.459 111.944,717.829 112.829,718.83 C 113.608,722.252 113.969,725.356 113.363,727.698 C 112.82,727.22 110.498,727.67 110.392,728.417 C 110.276,728.364 110.166,728.323 110.049,728.292 C 110.188,727.044 110.498,725.875 111.11,724.861 C 109.353,722.742 108.092,720.124 107.355,717.201 Z M 79.07,717.337 L 78.695,718.934 L 77.538,718.98 L 77.856,717.357 L 79.07,717.337 Z M 77.406,717.371 L 77.077,718.998 L 77.049,718.998 C 76.735,718.608 76.409,718.22 76.077,717.834 L 76.149,717.395 L 77.406,717.371 Z M 72.35,717.947 L 70.227,743.446 L 70.499,717.653 C 70.806,717.557 71.108,717.473 71.423,717.391 C 71.729,717.57 72.044,717.756 72.35,717.947 Z M 75.635,717.779 L 75.427,719.062 L 74.647,719.094 C 74.588,719.048 74.529,719.008 74.467,718.97 L 74.652,717.421 L 75.306,717.404 C 75.413,717.528 75.529,717.653 75.635,717.779 Z M 74.209,717.427 L 74.055,718.688 C 73.639,718.405 73.22,718.14 72.799,717.876 L 72.837,717.449 L 74.209,717.427 Z M 74.009,719.017 L 74,719.118 L 72.692,719.169 L 72.775,718.205 C 73.189,718.47 73.602,718.738 74.009,719.017 Z M 76.679,719.017 L 75.877,719.048 L 76.017,718.22 C 76.238,718.483 76.461,718.749 76.679,719.017 Z M 68.845,718.232 L 68.819,722 L 66.982,725.074 L 66.593,719.202 C 67.336,718.858 68.081,718.53 68.845,718.232 Z M 78.625,719.234 L 78.305,720.597 C 78.022,720.227 77.731,719.85 77.438,719.479 L 77.475,719.281 L 78.625,719.234 Z M 76.999,719.405 L 76.748,720.638 C 76.419,720.379 76.08,720.124 75.742,719.874 L 75.83,719.345 L 76.915,719.304 C 76.938,719.336 76.97,719.369 76.999,719.405 Z M 75.376,719.355 L 75.345,719.587 C 75.246,719.511 75.146,719.443 75.047,719.373 L 75.376,719.355 Z M 75.292,719.911 L 75.001,721.691 L 74.113,721.751 L 74.413,719.396 L 74.561,719.391 C 74.807,719.561 75.047,719.734 75.292,719.911 Z M 66.163,719.411 L 66.36,722.405 L 65.318,722.617 L 65.045,719.961 C 65.417,719.772 65.788,719.591 66.163,719.411 Z M 73.964,719.415 L 73.67,721.783 L 72.472,721.861 L 72.671,719.462 L 73.964,719.415 Z M 78.218,720.978 L 78.096,721.496 L 77.841,721.507 C 77.61,721.319 77.378,721.131 77.143,720.945 L 77.36,719.86 C 77.651,720.236 77.934,720.601 78.218,720.978 Z M 64.62,720.171 L 64.882,722.705 L 63.957,722.891 L 63.631,720.671 C 63.965,720.503 64.29,720.336 64.62,720.171 Z M 76.687,720.963 L 76.562,721.588 L 75.455,721.664 L 75.691,720.207 C 76.025,720.448 76.358,720.702 76.687,720.963 Z M 63.15,720.921 L 62.835,723.127 L 62.417,723.211 L 62.089,721.45 C 62.446,721.273 62.801,721.096 63.15,720.921 Z M 86.184,721.159 L 86.393,722.185 L 85.656,722.252 L 85.42,721.051 C 85.678,721.084 85.934,721.116 86.184,721.159 Z M 87.561,721.371 L 87.703,722.065 L 86.686,722.164 L 86.5,721.204 C 86.852,721.256 87.209,721.31 87.561,721.371 Z M 77.406,721.538 L 77.022,721.56 L 77.077,721.269 C 77.183,721.356 77.3,721.45 77.406,721.538 Z M 88.816,721.597 L 88.881,721.963 L 87.996,722.043 L 87.871,721.426 C 88.187,721.482 88.502,721.542 88.816,721.597 Z M 79.798,723.183 L 79.844,723.257 L 79.622,723.048 C 79.228,722.687 78.838,722.345 78.437,722.005 L 78.565,721.45 C 78.992,722.02 79.404,722.604 79.798,723.183 Z M 89.767,721.788 L 89.785,721.887 L 89.178,721.936 L 89.127,721.657 C 89.341,721.704 89.558,721.748 89.767,721.788 Z M 63.335,721.709 L 63.52,722.985 L 63.14,723.062 L 63.335,721.709 Z M 61.695,721.733 L 61.982,723.299 L 61.542,723.386 L 61.695,721.733 Z M 61.388,721.797 L 61.236,723.452 L 60.499,723.6 L 60.406,723.215 L 60.462,722.239 C 60.773,722.095 61.082,721.947 61.388,721.797 Z M 77.975,722.005 L 77.562,723.772 L 76.562,723.842 L 76.957,721.861 L 77.74,721.81 C 77.823,721.877 77.898,721.936 77.975,722.005 Z M 92.385,722.4 L 90.688,724.966 L 90.087,721.858 C 90.862,722.02 91.621,722.201 92.385,722.4 Z M 76.498,721.89 L 76.104,723.873 L 75.089,723.944 L 75.405,721.963 L 76.498,721.89 Z M 74.954,721.991 L 74.634,723.975 L 73.833,724.027 L 74.082,722.048 L 74.954,721.991 Z M 73.634,722.08 L 73.388,724.059 L 72.28,724.132 L 72.443,722.159 L 73.634,722.08 Z M 89.846,722.172 L 90.155,723.776 L 89.526,723.831 L 89.233,722.229 L 89.846,722.172 Z M 88.938,722.256 L 89.233,723.863 L 88.381,723.944 L 88.057,722.334 L 88.938,722.256 Z M 79.145,723.017 C 81.795,726.853 83.534,730.655 84.461,734.431 L 70.622,755.449 L 78.361,722.326 C 78.621,722.552 78.884,722.783 79.145,723.017 Z M 87.76,722.362 L 88.084,723.975 L 87.07,724.072 L 86.746,722.454 L 87.76,722.362 Z M 86.453,722.478 L 86.772,724.097 L 86.041,724.166 L 85.717,722.543 L 86.453,722.478 Z M 93.758,722.766 L 93.766,723.725 L 91.186,727.489 L 90.81,725.552 L 92.808,722.507 C 93.127,722.59 93.442,722.677 93.758,722.766 Z M 59.795,722.539 L 60.082,723.776 L 59.229,739.813 L 58.697,740.831 L 58.858,723.536 L 59.567,722.641 C 59.641,722.609 59.715,722.576 59.795,722.539 Z M 66.381,722.7 L 66.537,725.139 L 65.598,725.301 L 65.352,722.913 L 66.381,722.7 Z M 64.91,723.002 L 65.161,725.377 L 64.331,725.524 L 63.997,723.187 L 64.91,723.002 Z M 99.093,724.569 L 98.068,730.613 C 97.225,730.365 96.338,730.084 95.408,729.773 L 95.356,723.247 C 96.621,723.642 97.869,724.083 99.093,724.569 Z M 63.562,723.28 L 63.896,725.597 L 62.89,725.778 L 62.807,725.328 L 63.09,723.373 L 63.562,723.28 Z M 68.814,723.392 L 68.646,750.282 L 68.285,744.789 C 68.285,744.781 68.285,744.781 68.285,744.775 L 68.281,744.771 L 67.066,726.345 L 68.814,723.392 Z M 62.783,723.433 L 62.64,724.424 L 62.472,723.497 L 62.783,723.433 Z M 62.034,723.592 L 62.446,725.788 L 62.43,725.857 L 61.302,726.057 L 61.519,723.692 L 62.034,723.592 Z M 61.207,723.758 L 61.027,725.853 L 60.564,723.888 L 61.207,723.758 Z M 90.216,724.069 L 90.458,725.32 L 90.23,725.667 L 89.873,725.713 L 89.576,724.129 L 90.216,724.069 Z M 77.496,724.072 L 77.012,726.13 L 76.089,726.22 L 76.502,724.142 L 77.496,724.072 Z M 89.286,724.156 L 89.576,725.754 L 88.766,725.861 L 88.441,724.236 L 89.286,724.156 Z M 76.044,724.174 L 75.631,726.256 L 74.704,726.34 L 75.042,724.24 L 76.044,724.174 Z M 88.141,724.264 L 88.47,725.899 L 87.46,726.029 L 87.125,724.36 L 88.141,724.264 Z M 74.588,724.272 L 74.246,726.376 L 73.541,726.442 L 73.8,724.323 L 74.588,724.272 Z M 73.351,724.36 L 73.082,726.482 L 72.075,726.571 L 72.256,724.429 L 73.351,724.36 Z M 86.834,724.388 L 87.167,726.071 L 86.438,726.168 L 86.096,724.456 L 86.834,724.388 Z M 93.776,724.442 L 93.836,729.226 C 93.035,728.939 92.204,728.634 91.338,728.299 L 91.296,728.059 L 93.776,724.442 Z M 100.213,725.027 L 100.009,726.094 L 99.132,726.094 L 99.374,724.675 C 99.658,724.791 99.936,724.907 100.213,725.027 Z M 60.326,724.81 L 60.898,727.261 L 59.873,738.589 L 59.562,739.187 L 60.326,724.81 Z M 57.714,724.982 L 57.667,742.788 L 57.533,743.024 L 56.667,726.301 L 57.714,724.982 Z M 101.066,725.394 L 100.927,726.094 L 100.31,726.094 L 100.491,725.139 C 100.687,725.223 100.877,725.31 101.066,725.394 Z M 66.562,725.436 L 66.584,725.83 L 65.81,727.308 L 65.629,725.597 L 66.562,725.436 Z M 101.882,725.76 L 101.817,726.094 L 101.229,726.094 L 101.344,725.513 C 101.524,725.597 101.705,725.681 101.882,725.76 Z M 65.193,725.677 L 65.433,727.994 L 64.708,728.082 L 64.384,725.814 L 65.193,725.677 Z M 102.595,726.094 L 102.118,726.094 L 102.161,725.885 C 102.307,725.959 102.451,726.029 102.595,726.094 Z M 63.942,725.889 L 64.262,728.128 L 63.349,728.235 L 62.947,726.071 L 63.942,725.889 Z M 90.574,725.921 L 90.801,727.075 L 90.137,727.135 L 90.054,726.691 L 90.556,725.927 L 90.574,725.921 Z M 90.012,725.99 L 89.948,726.102 L 89.928,726.003 L 90.012,725.99 Z M 89.632,726.042 L 89.711,726.455 L 89.197,727.233 L 89.044,727.253 L 88.826,726.15 L 89.632,726.042 Z M 62.385,726.168 L 62.061,728.382 L 61.626,728.43 L 61.236,726.764 L 61.278,726.362 L 62.385,726.168 Z M 88.527,726.19 L 88.747,727.256 C 88.372,727.104 87.996,726.946 87.613,726.788 L 87.52,726.32 L 88.527,726.19 Z M 87.227,726.362 L 87.279,726.645 C 87.106,726.571 86.939,726.497 86.762,726.422 L 87.227,726.362 Z M 107.556,728.838 C 107.416,728.949 107.31,729.064 107.231,729.176 C 106.993,729.121 104.996,728.417 103.814,729.941 C 103.549,729.686 103.05,729.578 102.506,729.616 L 103.165,726.376 C 104.69,727.127 106.155,727.952 107.556,728.838 Z M 99.95,726.394 L 99.736,727.492 L 98.897,727.484 L 99.083,726.394 L 99.95,726.394 Z M 100.872,726.394 L 100.648,727.502 L 100.038,727.492 L 100.255,726.394 L 100.872,726.394 Z M 101.757,726.394 L 101.543,727.507 L 100.95,727.502 L 101.168,726.394 L 101.757,726.394 Z M 102.864,726.394 L 102.638,727.517 L 101.841,727.512 L 102.063,726.394 L 102.864,726.394 Z M 76.943,726.436 L 76.4,728.768 L 75.572,728.805 L 76.025,726.516 L 76.943,726.436 Z M 75.568,726.557 L 75.117,728.828 L 74.296,728.86 L 74.652,726.64 L 75.568,726.557 Z M 56.388,726.645 L 57.258,743.505 L 57.181,743.659 L 55.545,727.674 C 55.64,727.567 55.739,727.461 55.836,727.349 L 56.388,726.645 Z M 74.194,726.681 L 73.838,728.884 L 73.231,728.905 L 73.494,726.743 L 74.194,726.681 Z M 62.613,726.696 L 62.905,728.285 L 62.366,728.346 L 62.613,726.696 Z M 73.05,726.785 L 72.775,728.934 L 71.876,728.972 L 72.053,726.872 L 73.05,726.785 Z M 123.415,726.853 L 120.471,731.539 C 120.573,730.171 120.481,728.838 120.157,727.52 L 123.415,726.853 Z M 89.818,727.047 L 89.841,727.173 L 89.729,727.179 L 89.818,727.047 Z M 66.673,727.099 L 66.718,727.85 L 66.249,727.901 L 66.673,727.099 Z M 90.862,727.364 L 90.95,727.832 L 90.778,728.082 C 90.612,728.012 90.44,727.947 90.272,727.878 L 90.194,727.433 L 90.862,727.364 Z M 89.896,727.461 L 89.948,727.743 C 89.795,727.688 89.637,727.623 89.479,727.558 L 89.521,727.502 L 89.896,727.461 Z M 98.85,727.779 L 99.68,727.79 L 99.417,729.143 L 98.62,729.153 L 98.85,727.779 Z M 100.59,727.793 L 100.326,729.138 L 99.718,729.138 L 99.978,727.793 L 100.59,727.793 Z M 101.484,727.8 L 101.22,729.129 L 100.63,729.135 L 100.889,727.8 L 101.484,727.8 Z M 101.785,727.802 L 102.573,727.813 L 102.307,729.121 L 101.524,729.129 L 101.785,727.802 Z M 55.271,727.96 L 56.003,735.09 L 55.813,734.993 L 55.708,735.197 L 54.792,728.452 C 54.956,728.295 55.114,728.128 55.271,727.96 Z M 66.738,728.142 L 66.834,729.639 L 66.06,729.749 L 65.93,728.514 L 66.088,728.221 L 66.738,728.142 Z M 61.11,728.18 L 61.717,730.77 L 60.846,736.738 L 60.231,737.906 L 61.11,728.18 Z M 65.282,728.313 L 64.853,729.121 L 64.745,728.368 L 65.282,728.313 Z M 64.304,728.42 L 64.502,729.788 L 64.397,729.986 L 63.688,730.09 L 63.4,728.527 L 64.304,728.42 Z M 62.961,728.577 L 63.247,730.15 L 62.084,730.321 L 62.324,728.646 L 62.961,728.577 Z M 62.019,728.684 L 61.893,729.57 L 61.695,728.721 L 62.019,728.684 Z M 54.528,728.708 L 55.47,735.655 L 54.03,738.436 L 53.329,733.148 L 53.88,729.31 C 54.098,729.114 54.314,728.916 54.528,728.708 Z M 111.239,730.89 L 109.961,729.737 C 109.961,729.7 109.961,729.658 109.964,729.621 L 112.867,729.022 C 112.487,729.769 111.954,730.399 111.239,730.89 Z M 76.326,729.064 L 75.858,731.076 L 75.112,731.099 L 75.511,729.101 L 76.326,729.064 Z M 75.055,729.125 L 74.652,731.126 L 73.921,731.153 L 74.246,729.163 L 75.055,729.125 Z M 73.791,729.181 L 73.466,731.178 L 72.948,731.196 L 73.194,729.208 L 73.791,729.181 Z M 65.565,729.226 L 65.621,729.811 L 65.23,729.867 L 65.565,729.226 Z M 72.744,729.226 L 72.493,731.215 L 71.687,731.247 L 71.854,729.268 L 72.744,729.226 Z M 102.248,729.417 L 102.197,729.653 C 101.914,729.7 101.627,729.782 101.373,729.912 L 101.47,729.422 L 102.248,729.417 Z M 101.164,729.422 L 101.025,730.13 C 100.823,730.293 100.658,730.492 100.575,730.733 L 100.305,730.788 L 100.571,729.431 L 101.164,729.422 Z M 100.265,729.431 L 99.986,730.844 L 99.362,730.974 L 99.661,729.44 L 100.265,729.431 Z M 99.355,729.444 L 99.074,730.895 C 98.842,730.83 98.601,730.765 98.356,730.697 L 98.568,729.449 L 99.355,729.444 Z M 53.541,729.606 L 53.185,732.063 L 52.93,730.122 C 53.13,729.954 53.332,729.782 53.541,729.606 Z M 108.872,729.843 L 110.52,731.307 C 108.718,732.183 106.017,732.364 102.104,731.605 L 102.179,731.225 L 108.872,729.843 Z M 66.862,729.941 L 66.982,731.803 L 66.292,731.905 L 66.093,730.041 L 66.862,729.941 Z M 65.653,730.106 L 65.852,731.98 L 65.282,732.058 L 65.022,730.274 L 65.054,730.195 L 65.653,730.106 Z M 39.132,734.186 C 39.115,734.172 39.095,734.166 39.077,734.163 C 34.105,733.13 31.101,735.006 28.019,737.523 L 27.397,738.036 L 27.416,738.004 C 29.929,734.223 33.753,731.678 39.596,730.241 C 39.578,731.502 39.453,732.792 39.132,734.186 Z M 64.227,730.316 L 63.86,731.007 L 63.743,730.381 L 64.227,730.316 Z M 52.552,730.427 L 51.063,742.965 L 50.738,742.965 L 51.809,731.011 C 52.058,730.817 52.306,730.627 52.552,730.427 Z M 63.303,730.446 L 63.526,731.641 L 63.14,732.384 L 62.57,732.471 L 62.134,730.613 L 63.303,730.446 Z M 64.667,730.945 L 64.842,732.13 L 64.091,732.239 L 64.064,732.105 L 64.667,730.945 Z M 51.488,731.255 L 50.442,742.979 C 50.293,742.982 50.16,742.995 50.098,743.079 C 50.015,743.211 50.006,743.526 49.983,743.77 L 50.417,732.068 C 50.78,731.799 51.131,731.53 51.488,731.255 Z M 101.869,731.28 L 101.812,731.543 C 101.612,731.506 101.404,731.459 101.199,731.419 L 101.869,731.28 Z M 75.788,731.367 L 75.446,732.851 L 74.755,732.887 L 75.05,731.404 L 75.788,731.367 Z M 74.593,731.419 L 74.296,732.915 L 73.634,732.952 L 73.874,731.451 L 74.593,731.419 Z M 73.421,731.471 L 73.179,732.985 L 72.72,733.009 L 72.911,731.492 L 73.421,731.471 Z M 72.461,731.517 L 72.27,733.036 L 71.535,733.078 L 71.664,731.543 L 72.461,731.517 Z M 61.904,731.563 L 62.417,733.758 L 61.26,735.952 L 61.904,731.563 Z M 52.708,731.618 L 52.971,733.576 L 51.599,743.129 L 51.498,743.334 C 51.474,743.214 51.429,743.129 51.346,743.063 L 52.708,731.618 Z M 67.001,732.105 L 67.116,733.87 L 66.501,733.959 L 66.32,732.206 L 67.001,732.105 Z M 65.879,732.27 L 66.06,734.023 L 65.574,734.093 L 65.318,732.356 L 65.879,732.27 Z M 64.879,732.419 L 65.13,734.158 L 64.462,734.25 L 64.141,732.531 L 64.879,732.419 Z M 62.964,732.703 L 62.728,733.157 L 62.637,732.753 L 62.964,732.703 Z M 63.735,732.749 L 64.021,734.32 L 63.033,734.459 L 62.974,734.2 L 63.735,732.749 Z M 49.292,732.936 L 48.894,746.515 C 48.848,746.639 48.806,746.751 48.764,746.857 C 48.731,746.959 48.583,747.176 48.392,747.445 L 46.659,735.234 C 47.795,734.657 48.527,733.758 49.292,732.936 Z M 75.371,733.148 L 74.913,735.113 L 74.301,735.174 L 74.695,733.19 L 75.371,733.148 Z M 74.236,733.217 L 73.833,735.211 L 73.257,735.265 L 73.587,733.255 L 74.236,733.217 Z M 73.134,733.277 L 72.803,735.307 L 72.433,735.341 L 72.684,733.305 L 73.134,733.277 Z M 72.234,733.329 L 71.973,735.386 L 71.339,735.442 L 71.511,733.374 L 72.234,733.329 Z M 38.924,734.431 L 27.958,737.95 C 31.096,735.372 34.007,733.44 38.924,734.431 Z M 67.14,734.172 L 67.243,735.707 L 66.691,735.776 L 66.529,734.255 L 67.14,734.172 Z M 66.093,734.32 L 66.246,735.826 L 65.828,735.882 L 65.614,734.386 L 66.093,734.32 Z M 65.175,734.449 L 65.389,735.937 L 64.791,736.013 L 64.517,734.543 L 65.175,734.449 Z M 64.077,734.612 L 64.346,736.067 L 63.432,736.188 L 63.1,734.747 L 64.077,734.612 Z M 53.115,734.663 L 53.695,739.075 L 52.018,742.335 L 53.115,734.663 Z M 62.658,734.807 L 67.385,755.033 C 66.205,755.023 65.035,755.219 64.165,755.778 L 59.572,747.538 L 60.949,738.088 L 62.658,734.807 Z M 84.904,736.628 L 71.669,755.9 C 71.478,755.811 71.25,755.723 70.991,755.635 L 84.59,734.993 C 84.712,735.538 84.817,736.081 84.904,736.628 Z M 74.843,735.418 L 74.435,737.167 L 73.888,737.217 L 74.24,735.474 L 74.843,735.418 Z M 73.778,735.517 L 73.425,737.272 L 72.925,737.323 L 73.212,735.567 L 73.778,735.517 Z M 72.753,735.613 L 72.472,737.37 L 72.179,737.397 L 72.394,735.645 L 72.753,735.613 Z M 46.269,735.645 L 48.018,747.974 C 47.994,748.003 47.97,748.034 47.952,748.063 L 45.372,736.021 C 45.571,736.008 45.77,735.988 45.974,735.969 C 46.07,735.853 46.168,735.747 46.269,735.645 Z M 71.941,735.689 L 71.724,737.45 L 71.169,737.505 L 71.311,735.742 L 71.941,735.689 Z M 56.087,735.902 L 56.919,744.11 L 56.916,744.118 L 55.863,736.341 L 56.087,735.902 Z M 67.256,736.003 L 67.391,738.01 L 66.927,738.07 L 66.718,736.067 L 67.256,736.003 Z M 44.92,736.045 L 47.6,748.544 C 47.554,748.605 47.504,748.672 47.461,748.728 L 43.735,736.067 C 44.129,736.076 44.527,736.067 44.92,736.045 Z M 66.283,736.128 L 66.486,738.134 L 66.163,738.175 L 65.87,736.178 L 66.283,736.128 Z M 65.431,736.234 L 65.718,738.236 L 65.213,738.301 L 64.847,736.309 L 65.431,736.234 Z M 64.4,736.364 L 64.767,738.361 L 63.971,738.468 L 63.506,736.474 L 64.4,736.364 Z M 55.627,736.804 L 56.675,744.548 L 55.19,747.186 L 54.187,739.612 L 55.627,736.804 Z M 83.509,751.252 L 81.568,746.305 C 81.568,746.301 81.568,746.295 81.568,746.295 L 81.924,742.115 C 81.934,742.019 81.874,741.934 81.787,741.902 L 84.994,737.235 C 85.651,741.894 85.089,746.542 83.509,751.252 Z M 74.364,737.471 L 74,739.034 L 73.513,739.099 L 73.829,737.526 L 74.364,737.471 Z M 73.365,737.573 L 73.05,739.154 L 72.622,739.203 L 72.873,737.62 L 73.365,737.573 Z M 72.419,737.673 L 72.16,739.265 L 71.941,739.293 L 72.137,737.704 L 72.419,737.673 Z M 71.682,737.749 L 71.488,739.353 L 71.01,739.413 L 71.145,737.806 L 71.682,737.749 Z M 67.409,738.307 L 67.534,740.26 L 67.163,740.318 L 66.96,738.366 L 67.409,738.307 Z M 66.524,738.431 L 66.723,740.386 L 66.482,740.425 L 66.2,738.468 L 66.524,738.431 Z M 65.764,738.529 L 66.046,740.493 L 65.629,740.559 L 65.268,738.594 L 65.764,738.529 Z M 64.822,738.652 L 65.193,740.629 L 64.499,740.735 L 64.039,738.759 L 64.822,738.652 Z M 60.535,738.886 L 59.517,745.856 L 60.064,739.784 L 60.535,738.886 Z M 73.925,739.339 L 73.517,741.087 L 73.105,741.129 L 73.453,739.399 L 73.925,739.339 Z M 72.984,739.465 L 72.642,741.183 L 72.299,741.221 L 72.572,739.516 L 72.984,739.465 Z M 72.113,739.57 L 71.84,741.272 L 71.692,741.296 L 71.904,739.599 L 72.113,739.57 Z M 71.447,739.654 L 71.237,741.341 L 70.844,741.388 L 70.983,739.719 L 71.447,739.654 Z M 53.852,740.257 L 54.853,747.784 L 50.736,755.102 C 50.639,755.062 50.54,755.028 50.356,754.985 C 50.288,754.96 50.229,754.944 50.209,754.939 L 51.711,744.442 L 53.852,740.257 Z M 59.706,740.475 L 59.182,746.245 L 59.47,740.933 L 59.706,740.475 Z M 67.557,740.559 L 67.682,742.407 L 67.385,742.459 L 67.196,740.614 L 67.557,740.559 Z M 66.755,740.678 L 66.95,742.537 L 66.792,742.56 L 66.529,740.72 L 66.755,740.678 Z M 66.088,740.786 L 66.354,742.64 L 66.029,742.699 L 65.684,740.851 L 66.088,740.786 Z M 65.245,740.914 L 65.593,742.773 L 65.003,742.88 L 64.567,741.023 L 65.245,740.914 Z M 73.443,741.388 L 73.082,742.965 L 72.729,743.002 L 73.044,741.434 L 73.443,741.388 Z M 72.586,741.486 L 72.27,743.052 L 71.998,743.084 L 72.252,741.532 L 72.586,741.486 Z M 59.135,741.569 L 58.886,746.305 L 58.649,745.874 L 58.677,742.445 L 59.135,741.569 Z M 71.788,741.582 L 71.535,743.135 L 71.46,743.144 L 71.655,741.592 L 71.788,741.582 Z M 71.2,741.647 L 71.01,743.195 L 70.691,743.233 L 70.82,741.685 L 71.2,741.647 Z M 81.491,742.338 L 81.175,746.06 L 79.014,745.944 L 81.491,742.338 Z M 67.701,742.704 L 67.83,744.678 L 67.618,744.701 L 67.419,742.756 L 67.701,742.704 Z M 66.978,742.83 L 67.176,744.753 L 67.108,744.758 L 66.834,742.857 L 66.978,742.83 Z M 66.394,742.936 L 66.673,744.808 L 66.422,744.837 L 66.083,742.993 L 66.394,742.936 Z M 65.648,743.07 L 65.981,744.887 L 65.486,744.947 L 65.07,743.173 L 65.648,743.07 Z M 73.008,743.27 L 70.732,753.016 L 72.671,743.306 L 73.008,743.27 Z M 72.205,743.358 L 70.876,750.023 L 71.946,743.391 L 72.205,743.358 Z M 71.488,743.44 L 71.214,745.146 L 71.426,743.44 L 71.488,743.44 Z M 70.97,743.492 L 70.153,750.06 L 70.162,749.601 L 70.667,743.534 L 70.97,743.492 Z M 57.662,744.396 L 57.657,745.457 L 57.607,744.494 L 57.662,744.396 Z M 67.849,744.97 L 68.202,750.313 L 67.65,744.994 L 67.849,744.97 Z M 57.333,744.973 L 57.366,745.532 L 57.314,745.012 L 57.333,744.973 Z M 67.204,745.044 L 67.354,746.457 L 67.149,745.054 L 67.204,745.044 Z M 66.709,745.105 L 67.548,750.894 L 66.478,745.133 L 66.709,745.105 Z M 66.033,745.183 L 67.864,755.047 L 67.846,755.047 L 65.551,745.24 L 66.033,745.183 Z M 51.296,745.25 L 50.061,753.846 L 51.026,745.782 L 51.296,745.25 Z M 56.847,745.837 L 57.445,750.226 C 56.791,750.342 56.155,750.746 55.731,751.245 L 55.364,748.484 L 56.847,745.837 Z M 78.862,746.352 L 81.188,746.472 L 83.3,751.854 C 82.808,753.239 82.226,754.634 81.564,756.033 L 81.086,756.033 C 79.075,754.693 73.578,755.157 72.331,756.178 L 72.15,756.182 C 72.119,756.153 72.075,756.13 72.035,756.098 L 78.759,746.309 C 78.788,746.334 78.824,746.347 78.862,746.352 Z M 58.641,746.477 L 58.858,746.862 L 58.677,750.175 C 58.654,750.171 58.628,750.165 58.607,750.165 L 58.641,746.477 Z M 50.637,746.538 L 49.773,753.804 L 50.372,747.047 L 50.637,746.538 Z M 50.015,747.752 L 49.705,751.172 L 49.824,748.128 L 50.015,747.752 Z M 59.502,748.02 L 63.919,755.949 C 63.812,756.033 63.71,756.13 63.609,756.228 C 63.526,756.21 63.321,756.159 63.028,756.089 L 60.882,752.92 C 60.909,752.838 60.926,752.754 60.932,752.666 C 60.927,752.619 60.925,752.467 60.936,752.469 C 61.035,752.062 60.166,750.824 59.164,750.342 L 59.502,748.02 Z M 55.025,749.081 L 55.372,751.758 C 55.205,752.085 55.134,752.419 55.192,752.721 C 55.182,752.779 55.207,752.826 55.216,752.853 C 55.301,753.102 55.42,753.322 55.605,753.497 L 55.998,756.446 L 55.647,756.45 L 54.632,749.782 L 55.025,749.081 Z M 48.792,750.133 L 48.787,750.235 L 48.779,750.161 L 48.792,750.133 Z M 54.302,750.361 L 55.224,756.46 L 55.169,756.46 L 53.241,752.247 L 54.302,750.361 Z M 47.915,751.838 L 48.666,754.398 L 48.651,754.9 C 47.432,755.12 46.529,755.905 46.529,756.839 C 46.529,756.894 46.532,756.946 46.539,757 C 46.631,757.135 46.754,757.224 46.885,757.296 L 47.883,766.275 L 46.165,764.047 C 46.112,763.987 46.044,763.959 45.969,763.964 L 44.185,759.124 L 47.915,751.838 Z M 57.644,752.174 L 57.636,753.924 C 57.534,753.917 57.432,753.908 57.333,753.896 L 57.181,753.86 L 57.347,752.177 C 57.445,752.175 57.544,752.174 57.644,752.174 Z M 57.047,752.19 L 56.89,753.79 L 56.505,753.699 L 56.365,753.634 L 56.57,752.232 C 56.733,752.213 56.871,752.2 57.047,752.19 Z M 58.861,752.224 L 59.035,753.802 L 58.57,753.874 L 58.584,752.205 C 58.677,752.211 58.77,752.216 58.861,752.224 Z M 59.619,752.292 L 59.906,753.506 L 59.324,753.722 L 59.162,752.247 C 59.318,752.26 59.471,752.276 59.619,752.292 Z M 56.28,752.278 L 56.104,753.498 L 56.018,753.438 L 55.878,752.377 C 55.995,752.339 56.123,752.308 56.28,752.278 Z M 60.142,752.354 L 60.543,752.949 C 60.467,753.086 60.345,753.215 60.185,753.334 L 59.938,752.328 C 60.009,752.337 60.077,752.345 60.142,752.354 Z M 60.712,752.433 C 60.686,752.477 60.663,752.532 60.65,752.578 L 60.535,752.409 C 60.6,752.416 60.657,752.425 60.712,752.433 Z M 55.478,752.553 L 55.524,752.891 C 55.504,752.849 55.486,752.807 55.472,752.765 C 55.461,752.729 55.438,752.659 55.411,752.598 C 55.433,752.582 55.454,752.566 55.478,752.553 Z M 52.991,752.695 L 54.715,756.465 L 54.515,756.469 L 52.457,753.637 L 52.991,752.695 Z M 60.726,753.218 L 62.606,756.006 C 61.579,755.798 59.956,755.561 58.551,755.778 L 58.565,754.191 C 59.468,754.085 60.339,753.755 60.726,753.218 Z M 57.636,754.222 L 57.63,755.992 C 57.32,756.103 57.027,756.247 56.773,756.433 L 56.417,756.437 L 56.071,753.829 C 56.517,754.067 57.072,754.189 57.636,754.222 Z M 52.235,754.032 L 54.009,756.475 L 52.147,756.465 L 52.63,757.262 L 54.584,757.27 L 55.173,758.087 L 54.677,757.828 C 55.749,759.032 56.73,760.251 57.621,761.489 L 57.568,778.822 L 53.815,773.952 C 54.134,772.348 55.4,773.761 56.207,773.021 C 56.791,772.491 56.282,771.643 57.293,771.155 C 56.213,770.927 55.779,771.141 55.274,771.586 C 55.137,771.767 54.815,771.89 54.611,771.748 C 53.648,771.266 52.646,770.862 52.104,771.507 C 52.071,771.535 52.034,771.572 52.006,771.6 L 49.413,768.255 L 52.06,757.062 L 52.145,757 C 52.151,756.946 52.155,756.894 52.155,756.839 C 52.155,756.314 51.869,755.838 51.404,755.48 L 52.235,754.032 Z M 102.099,755.109 L 95.622,758.193 L 95.611,757.284 L 98.091,755.682 L 102.099,755.109 Z M 97.395,755.778 L 95.602,756.938 L 95.588,756.033 L 97.395,755.778 Z M 93.807,755.829 L 94.066,757.934 L 93.687,758.18 L 92.451,756.831 L 93.076,755.889 L 93.807,755.829 Z M 92.696,755.927 L 92.242,756.604 L 91.705,756.01 L 92.696,755.927 Z M 91.33,756.039 L 92.08,756.858 L 91.351,757.949 C 91.287,757.852 91.231,757.758 91.172,757.66 C 90.62,758.114 90.045,758.527 89.451,758.902 L 88.854,756.868 L 91.281,756.043 L 91.33,756.039 Z M 90.04,756.153 L 88.77,756.585 L 88.677,756.27 L 90.04,756.153 Z M 88.376,756.298 L 88.491,756.683 L 85.235,757.782 L 84.904,756.938 L 86.18,756.488 L 88.376,756.298 Z M 49.984,756.555 L 49.867,757.58 C 49.732,757.593 49.596,757.603 49.461,757.606 L 49.5,756.541 C 49.664,756.541 49.826,756.546 49.984,756.555 Z M 50.817,756.646 L 50.662,757.436 C 50.503,757.479 50.339,757.514 50.17,757.541 L 50.281,756.577 C 50.462,756.593 50.642,756.617 50.817,756.646 Z M 48.602,756.582 L 48.572,757.564 C 48.447,757.546 48.323,757.527 48.204,757.503 L 48.156,756.63 C 48.306,756.612 48.455,756.595 48.602,756.582 Z M 84.998,756.591 L 84.799,756.659 L 84.78,756.607 L 84.998,756.591 Z M 84.469,756.637 L 84.517,756.757 L 79.769,758.424 L 78.903,756.781 L 84.014,756.677 L 84.469,756.637 Z M 47.883,756.669 L 47.924,757.434 C 47.885,757.424 47.848,757.414 47.812,757.404 L 47.766,756.687 C 47.806,756.679 47.844,756.674 47.883,756.669 Z M 51.775,756.883 L 51.766,756.92 C 51.547,757.091 51.278,757.231 50.979,757.337 L 51.105,756.702 C 51.333,756.75 51.555,756.811 51.775,756.883 Z M 47.473,756.734 L 47.507,757.294 C 47.381,757.241 47.264,757.183 47.159,757.119 L 47.122,756.8 C 47.24,756.777 47.357,756.755 47.473,756.734 Z M 78.573,756.785 L 79.487,758.527 L 74.32,760.344 C 73.281,759.26 72.195,758.305 71.06,757.527 L 70.269,756.952 L 78.573,756.785 Z M 88.572,756.965 L 89.187,759.069 C 88.274,759.626 87.301,760.089 86.277,760.482 L 85.34,758.053 L 88.572,756.965 Z M 67.846,757.002 L 68.587,760.178 L 68.581,761.233 C 68.071,761.146 67.571,761.057 67.056,760.961 L 64.879,757.062 L 67.846,757.002 Z M 84.627,757.036 L 84.953,757.878 L 80.308,759.445 L 79.913,758.694 L 84.627,757.036 Z M 64.544,757.067 L 66.677,760.892 C 66.524,760.858 66.367,760.826 66.208,760.798 L 63.701,757.085 L 64.544,757.067 Z M 92.285,757.085 L 93.438,758.341 L 92.19,759.153 C 92.145,759.153 92.097,759.158 92.052,759.158 C 91.89,758.848 91.713,758.537 91.524,758.226 L 92.285,757.085 Z M 63.345,757.09 L 65.792,760.711 C 63.965,760.33 62.089,759.881 60.18,759.37 L 60.18,757.155 L 63.345,757.09 Z M 59.596,757.169 L 59.599,759.213 C 59.238,759.116 58.881,759.019 58.524,758.916 L 58.538,757.189 L 59.596,757.169 Z M 57.63,757.206 L 57.626,758.657 C 57.31,758.563 56.99,758.472 56.671,758.378 L 56.517,757.225 L 57.63,757.206 Z M 56.1,757.238 L 56.236,758.249 C 56.128,758.216 56.021,758.18 55.915,758.151 L 55.762,757.243 L 56.1,757.238 Z M 51.665,757.347 L 49.18,767.958 L 49.088,767.834 L 49.125,766.772 L 50.913,757.673 C 51.185,757.588 51.439,757.48 51.665,757.347 Z M 70.081,757.445 L 70.442,757.884 L 72.671,760.924 L 70.83,761.568 C 70.565,761.536 70.297,761.502 70.038,761.46 L 70.081,757.445 Z M 47.939,757.746 L 48.345,765.488 L 48.305,766.822 L 48.232,766.721 L 47.198,757.479 C 47.421,757.59 47.672,757.678 47.939,757.746 Z M 50.599,757.759 L 49.2,764.89 L 49.451,757.903 C 49.839,757.894 50.229,757.846 50.599,757.759 Z M 48.564,757.862 L 48.449,761.841 L 48.221,757.809 C 48.334,757.829 48.449,757.846 48.564,757.862 Z M 73.351,760.683 L 72.956,760.821 C 72.304,759.798 71.6,758.799 70.825,757.859 C 71.729,758.727 72.563,759.676 73.351,760.683 Z M 85.058,758.151 L 85.999,760.585 C 84.59,761.1 83.084,761.465 81.494,761.693 L 80.452,759.714 L 85.058,758.151 Z M 94.115,758.254 L 94.17,758.703 L 93.892,758.402 L 94.115,758.254 Z M 74.005,760.456 L 73.634,760.585 C 73.086,759.888 72.49,759.186 71.813,758.453 C 72.618,759.12 73.341,759.778 74.005,760.456 Z M 93.642,758.563 L 94.007,758.963 L 93.807,759.055 C 93.466,759.084 93.122,759.103 92.775,759.124 L 93.642,758.563 Z M 79.63,758.796 L 80.023,759.547 L 75.117,761.201 C 74.927,760.992 74.737,760.784 74.546,760.58 L 79.63,758.796 Z M 43.999,759.482 L 45.616,763.875 L 43.355,760.738 L 43.999,759.482 Z M 80.164,759.807 L 81.178,761.738 C 79.613,761.947 77.962,762.045 75.757,761.965 L 75.324,761.447 L 80.164,759.807 Z M 74.811,761.308 L 74.306,761.479 C 74.149,761.266 73.985,761.044 73.824,760.835 L 74.231,760.686 C 74.425,760.896 74.62,761.1 74.811,761.308 Z M 74.019,761.576 L 73.522,761.742 C 73.393,761.52 73.257,761.3 73.119,761.081 L 73.541,760.934 C 73.697,761.146 73.859,761.359 74.019,761.576 Z M 43.202,761.034 L 45.185,763.778 L 42.622,762.179 L 43.202,761.034 Z M 72.831,761.183 L 73.249,761.827 C 72.807,761.791 72.132,761.729 71.483,761.656 L 72.831,761.183 Z M 75.338,761.91 L 75.324,761.918 L 74.574,761.855 C 74.542,761.813 74.514,761.767 74.486,761.729 L 75.019,761.55 C 75.131,761.674 75.241,761.803 75.338,761.91 Z M 59.604,764.557 L 59.609,769.535 L 58.446,766.902 L 58.483,762.754 C 58.881,763.347 59.248,763.953 59.604,764.557 Z M 63.419,778.224 L 60.183,770.87 L 60.183,765.613 C 62.329,769.665 63.463,773.878 63.419,778.224 Z M 58.435,767.912 L 59.609,770.572 L 59.609,781.46 L 58.241,779.684 L 58.321,779.689 L 58.435,767.912 Z M 49.283,768.812 L 51.747,771.99 C 51.284,772.476 50.838,772.879 49.78,772.685 L 48.931,772.052 L 49.01,769.974 L 49.283,768.812 Z M 60.189,771.908 L 63.382,779.188 C 63.285,781.116 62.956,783.068 62.376,785.043 L 60.198,782.215 L 60.189,771.908 Z M 48.915,772.463 L 49.771,773.273 C 49.762,773.925 49.724,774.862 49.752,775.41 L 48.772,776.275 L 48.915,772.463 Z M 110.517,783.609 L 110.113,783.68 L 108.811,781.558 L 109.13,781.123 C 110.072,781.706 110.604,782.512 110.517,783.609 Z M 108.533,781.946 L 109.639,783.754 L 106.933,784.18 L 108.533,781.946 Z M 60.198,782.938 L 62.223,785.565 C 61.699,787.239 60.994,788.926 60.104,790.632 L 60.198,782.938 Z M 89.653,783.439 L 90.137,783.521 C 90.477,783.679 90.756,784.053 90.847,784.644 L 89.123,784.339 L 89.637,783.464 C 89.523,783.459 89.588,783.446 89.653,783.439 Z M 93.613,785.133 L 91.105,784.689 C 91.879,783.367 93.336,783.846 93.613,785.133 Z M 110.428,784.185 L 110.276,783.948 L 110.485,783.916 C 110.465,784.004 110.452,784.093 110.428,784.185 Z M 96.822,785.696 L 95.625,785.498 L 95.618,784.521 C 96.217,784.686 96.734,785.124 96.822,785.696 Z M 94.534,784.548 L 94.541,785.297 L 93.811,785.168 C 93.988,784.857 94.245,784.657 94.534,784.548 Z M 99.774,786.185 L 96.922,785.713 C 97.467,784.503 99.558,784.792 99.774,786.185 Z M 88.687,785.056 L 94.551,786.052 L 94.582,788.193 L 88.567,785.255 C 88.607,785.185 88.645,785.124 88.687,785.056 Z M 102.214,786.552 L 102.156,786.581 L 99.925,786.211 C 100.52,784.997 101.919,785.299 102.214,786.552 Z M 95.635,786.249 L 102.79,787.374 L 95.649,788.288 L 95.635,786.249 Z M 60.991,793.665 L 58.815,793.382 C 59.578,792.488 60.642,792.457 60.991,793.665 Z M 63.656,794.012 L 61.175,793.689 C 61.6,792.748 63.056,792.858 63.656,794.012 Z M 66.409,794.37 L 63.93,794.048 C 64.416,793.2 66.054,793.382 66.409,794.37 Z M 68.382,794.033 L 68.378,794.627 L 66.61,794.396 C 66.957,793.81 67.768,793.73 68.382,794.033 Z M 59.538,794.269 L 68.374,795.373 L 68.356,798.213 L 59.538,794.269 Z M 72.07,795.111 L 69.676,794.798 L 69.678,794.431 C 70.403,794.099 71.63,794.464 72.07,795.111 Z M 73.603,794.767 L 74.009,794.831 C 74.404,794.936 74.752,795.162 74.92,795.483 L 72.454,795.161 C 72.736,794.866 73.171,794.745 73.603,794.767 Z M 77.63,795.837 L 75.241,795.525 C 75.819,794.963 77.227,795.184 77.63,795.837 Z M 69.671,795.535 L 78.788,796.671 L 69.634,798.335 L 69.671,795.535 Z M 79.911,796.135 L 78.073,795.895 C 78.638,795.465 79.477,795.623 79.911,796.135 Z M 95.705,795.967 L 96.079,796.201 L 96.294,800.279 L 95.741,800.657 L 95.705,795.967 Z M 69.554,806.13 L 70.06,806.782 L 70.222,812.172 L 69.481,812.999 L 69.554,806.13 Z" stroke-linejoin="round" stroke-linecap="round" stroke="none" stroke-width="0.061" fill="#000000" marker-start="none" marker-end="none" stroke-miterlimit="79.8403193612775"/>
    <path d="M 66.443,675.545 C 65.746,675.538 64.915,675.586 64.207,675.707 L 64.1,675.718 C 62.544,675.948 60.627,675.98 58.551,675.951 C 56.169,675.921 53.698,675.817 50.924,675.822 C 49.912,675.824 48.55,675.866 48.292,675.912 L 46.286,676.093 C 45.314,676.22 44.852,676.303 45.013,676.292 L 43.852,676.551 C 42.732,676.876 42.349,677.025 42.227,677.102 L 41.787,677.311 L 40.996,677.763 C 39.271,678.955 35.272,681.207 32.996,681.23 C 32.775,681.232 32.535,681.231 32.905,681.23 L 32.788,681.253 C 31.013,681.271 28.02,681.116 25.853,681.613 C 23.052,682.452 21.736,683.661 22.249,686.032 C 22.554,687.453 24.117,688.08 23.667,690.026 C 23.453,690.938 18.939,692.843 17.711,693.4 C 17.207,693.637 16.784,694.347 17.354,694.827 C 17.73,695.139 17.628,695.323 18.249,695.449 C 19.648,695.732 23.482,695.449 25.172,695.449 C 28.709,695.449 32.278,695.286 35.754,695.268 C 35.931,695.268 36.106,695.273 36.287,695.281 C 36.331,695.284 36.376,695.286 36.42,695.289 C 36.419,695.32 36.42,695.352 36.42,695.384 C 36.427,695.384 36.434,695.385 36.442,695.386 C 36.233,692.631 37.372,689.965 40.821,687.674 C 79.815,689.732 72.763,687.233 95.433,691.421 C 100.804,692.845 105.383,694.524 109.348,696.418 C 109.713,696.987 110.017,697.526 110.272,698.036 C 111.289,698.136 112.308,698.25 113.331,698.379 C 116.671,698.368 123.448,697.804 126.043,696.768 C 126.491,695.983 125.684,695.137 123.11,693.639 C 121.295,692.741 119.052,691.998 118.447,691.779 C 118.423,691.771 118.403,691.758 118.386,691.742 C 118.357,691.732 118.329,691.722 118.304,691.713 C 118.196,691.678 118.177,691.546 118.126,691.449 C 117.297,689.753 118.485,687.895 117.862,686.113 C 116.757,684.939 115.582,683.779 113.769,682.631 L 112.44,681.967 L 111.974,681.768 C 111.276,681.503 110.398,681.314 109.436,681.253 C 107.456,681.125 104.614,681.206 100.599,681.146 C 101.084,681.162 100.4,681.152 98.92,681.087 C 100.465,681.18 99.101,681.147 97.017,680.954 C 97.508,681.005 97.211,680.977 96.839,680.933 C 97.259,681.003 96.68,680.939 95.821,680.782 C 95.832,680.792 95.58,680.745 94.917,680.58 C 95.618,680.771 95.135,680.666 94.717,680.536 L 93.54,680.193 C 93.44,680.135 92.153,679.787 88.168,678.632 C 92.245,679.772 89.551,679.139 87.043,678.305 C 86.619,678.166 86.039,678.173 85.301,678.167 C 85.138,678.171 84.837,678.174 83.863,678.051 C 84.847,678.184 84.234,678.187 83.743,678.042 C 82.123,677.552 74.83,676.477 73.925,676.435 L 73.801,676.417 C 73.205,676.393 72.465,676.291 69.78,675.849 C 71.543,676.312 69.338,675.574 66.443,675.545 Z" stroke-linejoin="round" stroke-linecap="round" stroke="none" stroke-width="0.061" fill="#000000" marker-start="none" marker-end="none" stroke-miterlimit="79.8403193612775"/>
   </g>
  </g>
 </g>
</svg>
